<?xml version="1.0" encoding="UTF-8"?>
<!DOCTYPE svg PUBLIC "-//W3C//DTD SVG 1.1//EN" "http://www.w3.org/Graphics/SVG/1.1/DTD/svg11.dtd">
<!-- Creator: CorelDRAW 2021 (64 Bit) -->
<svg xmlns="http://www.w3.org/2000/svg" xml:space="preserve" width="143.086mm" height="29.9901mm" version="1.1" style="shape-rendering:geometricPrecision; text-rendering:geometricPrecision; image-rendering:optimizeQuality; fill-rule:evenodd; clip-rule:evenodd"
viewBox="0 0 13742.04 2880.27"
 xmlns:xlink="http://www.w3.org/1999/xlink"
 xmlns:xodm="http://www.corel.com/coreldraw/odm/2003">
 <defs>
  <style type="text/css">
   <![CDATA[
    .fil2 {fill:#444444}
    .fil0 {fill:#444444}
    .fil5 {fill:#2E2E2D}
    .fil4 {fill:#FFEC1B}
    .fil3 {fill:#C5127C}
    .fil1 {fill:#009EE0}
    .fil6 {fill:#2E2E2D;fill-rule:nonzero}
   ]]>
  </style>
 </defs>
 <g id="Camada_x0020_1">
  <metadata id="CorelCorpID_0Corel-Layer"/>
  <g id="_1708599632560">
   <g>
    <path class="fil0" d="M0.29 2826.25c1572.71,-695.83 2060.24,-607.5 2894.46,-150.3l-503.08 -1661.79c-211.95,52.65 -2046.15,493.75 -2391.38,1812.1z"/>
    <path class="fil1" d="M0.29 2826.25c1607.01,-759.08 2105.16,-690.34 2957.58,-266.7l-514.06 -1641.57c-216.57,61.18 -2090.76,576.03 -2443.52,1908.27z"/>
    <path class="fil2" d="M0.29 2826.25c487.01,-401.43 1302.22,-881.64 1710.19,-1017.2 628.47,-208.82 1258.96,-92.9 1939.32,162.25l-802.89 -1450.47c-165.13,172.11 -2498.38,984.8 -2846.62,2305.42z"/>
    <path class="fil3" d="M0.29 2826.25c493.35,-417.67 1319.18,-925.08 1732.44,-1074.24 636.64,-229.78 1275.33,-134.89 1964.54,97.58l-813.34 -1423.69c-300.51,83.24 -2530.87,1068.12 -2883.64,2400.35z"/>
    <path class="fil2" d="M0.29 2826.25c177.53,-214.1 583.65,-907.63 1340.29,-1315.99 417.48,-225.3 813.22,-316.01 1593.05,-287.04l-1031.01 -1097.94c-195.09,142.33 -1589.16,1348.33 -1902.33,2700.96z"/>
    <path class="fil4" d="M0.29 2826.25c180.07,-220.76 591.98,-929.5 1359.41,-1366.21 423.44,-240.95 824.83,-346.49 1615.78,-346.73l-1045.72 -1059.31c-197.87,149.64 -1611.83,1407.88 -1929.47,2772.24z"/>
    <path class="fil2" d="M0.29 2826.27c311.81,-978.44 824.17,-1638.08 1761.91,-1621.55l-953.17 -610.38c-609.41,1008.45 -817.94,1609.08 -808.75,2231.93z"/>
    <path class="fil5" d="M0.29 2826.25c304.06,-999.93 803.73,-1694.88 1718.22,-1742.98l-929.53 -544.68c-594.3,1050.44 -797.66,1665.45 -788.69,2287.66z"/>
   </g>
   <g>
    <path class="fil6" d="M4277.07 798.63c127.48,-152.25 248.88,-228.59 364.2,-228.59 59.28,0 110.43,15.02 153.06,44.66 43.04,29.64 76.74,78.77 102.31,146.98 17.46,47.91 25.99,120.99 25.99,219.25l0 466.09c0,68.62 5.69,114.9 16.64,139.67 8.53,19.49 22.74,34.91 41.82,45.88 19.5,10.97 55.22,16.64 107.19,16.64l0 43.85 -538.37 0 0 -43.85 22.73 0c50.34,0 85.67,-7.71 105.96,-23.15 19.9,-15.42 34.1,-38.16 41.83,-67.8 3.25,-11.77 4.87,-49.13 4.87,-111.25l0 -448.64c0,-99.47 -12.99,-172.14 -38.57,-217.22 -25.58,-45.06 -68.62,-67.39 -129.52,-67.39 -93.78,0 -187.16,51.55 -280.14,155.1l0 578.16c0,73.49 4.47,118.55 12.98,136.02 11.37,22.73 26.8,39.38 46.29,50.34 19.49,10.55 58.87,15.83 118.55,15.83l0 43.85 -540.8 0 0 -43.85 23.95 0c55.62,0 92.98,-13.8 112.46,-41.82 19.49,-28.02 29.23,-81.61 29.23,-160.38l0 -404.38c0,-130.74 -2.84,-210.32 -8.93,-238.74 -6.09,-28.83 -15.03,-48.32 -27.2,-58.47 -12.19,-10.15 -28.83,-15.43 -49.13,-15.43 -22.33,0 -48.72,6.1 -79.58,17.87l-17.86 -43.85 328.87 -133.99 51.16 0 0 228.59zm1081.62 214.79c-0.82,161.19 38.56,287.45 117.74,379.21 79.18,91.35 172.56,137.23 279.74,137.23 71.06,0 133.18,-19.49 185.95,-58.46 52.78,-38.57 97.04,-106.37 132.78,-202.19l36.53 23.95c-16.64,109.63 -64.96,209.1 -144.94,298.01 -79.98,88.91 -180.27,133.58 -300.45,133.58 -130.73,0 -242.79,-50.76 -335.77,-152.67 -92.98,-101.91 -139.67,-238.74 -139.67,-410.48 0,-185.95 47.91,-331.3 143.32,-435.25 95.42,-104.35 215.19,-156.32 359.33,-156.32 121.8,0 222.08,40.19 300.44,120.59 78.37,80.39 117.75,187.98 117.75,322.78l-752.74 0zm0 -68.22l504.26 0c-4.06,-69.83 -12.19,-118.96 -24.77,-147.38 -19.9,-44.26 -49.54,-79.17 -88.91,-104.34 -38.97,-25.59 -79.99,-38.17 -123.02,-38.17 -65.78,0 -124.65,25.58 -176.62,76.74 -51.98,51.16 -82.02,122.21 -90.94,213.15zm838 -343.48l456.76 0 0 43.84c-41.81,3.26 -69.42,10.56 -82.41,22.73 -13.4,11.78 -19.89,28.83 -19.89,51.17 0,24.36 6.9,54.4 20.29,89.32l235.08 626.89 236.3 -512.39 -62.12 -158.76c-19.07,-47.5 -43.84,-80.39 -75.1,-98.66 -17.47,-11.36 -49.94,-17.86 -97.45,-20.3l0 -43.84 515.64 0 0 43.84c-55.63,2.44 -95.01,12.99 -118.15,31.67 -15.43,12.99 -23.15,33.7 -23.15,62.12 0,15.02 3.25,30.86 9.34,46.69l246.86 622.42 228.99 -599.68c16.24,-43.04 24.36,-77.15 24.36,-102.31 0,-15.43 -7.71,-28.83 -23.15,-40.61 -15.83,-11.77 -46.28,-18.68 -91.76,-20.3l0 -43.84 342.68 0 0 43.84c-69.02,10.15 -119.77,56.85 -152.25,139.67l-363.79 939.52 -47.91 0 -272.84 -697.95 -321.56 697.95 -41.41 0 -350.8 -915.97c-23.15,-58.06 -45.48,-97.04 -67.8,-117.33 -22.33,-20.31 -57.25,-35.74 -104.75,-45.89l0 -43.84zm2747.9 -358.11l0 358.11 254.57 0 0 80.39 -254.57 2.44 0 706.87c0,70.65 10.15,118.55 30.45,142.91 19.89,24.77 45.88,36.95 77.54,36.95 26.39,0 51.56,-8.12 76.33,-24.76 24.36,-16.24 43.45,-40.61 56.84,-72.68l46.29 0c-27.61,78.37 -67,137.24 -117.75,177.02 -51.16,39.39 -103.53,59.29 -157.54,59.29 -36.54,0 -72.27,-10.15 -107.18,-30.45 -34.92,-20.3 -60.5,-49.54 -77.15,-87.29 -16.64,-37.76 -25.17,-95.82 -25.17,-174.59l0 -735.69 -172.96 0 0 -37.76c43.85,-17.45 88.51,-46.69 134.39,-87.69 45.88,-41.41 86.48,-90.54 122.62,-147.79 18.28,-30.04 43.85,-85.26 76.75,-165.25l36.53 0zm637.44 -243.61c32.88,0 61.3,11.77 84.85,34.92 23.15,23.55 34.92,51.97 34.92,84.85 0,33.3 -11.77,62.12 -34.92,85.67 -23.55,23.95 -51.97,35.74 -84.85,35.74 -33.3,0 -62.13,-11.78 -85.67,-35.74 -23.95,-23.55 -35.74,-52.37 -35.74,-85.67 0,-32.88 11.78,-61.3 34.92,-84.85 23.55,-23.15 52.37,-34.92 86.48,-34.92zm97.85 570.04l0 876.99c0,67.8 4.88,112.88 15.02,135.21 9.75,22.73 24.37,39.38 43.85,50.34 19.49,10.97 55.21,16.64 106.78,16.64l0 43.85 -528.63 0 0 -43.85c52.78,0 88.51,-5.27 106.37,-15.42 18.28,-10.15 32.48,-27.2 43.45,-50.75 10.55,-23.55 15.83,-69.02 15.83,-136.02l0 -421.44c0,-117.34 -3.65,-193.26 -10.55,-228.18 -5.69,-25.17 -14.21,-42.63 -26.38,-52.37 -11.78,-10.15 -28.02,-15.03 -48.33,-15.03 -22.33,0 -49.12,6.1 -80.79,17.87l-16.64 -43.85 327.65 -133.99 52.37 0zm625.67 233.05c78.76,-79.58 125.46,-125.46 139.66,-137.64 35.32,-30.05 73.49,-53.6 114.5,-70.24 41.01,-16.64 81.62,-25.17 121.8,-25.17 68.22,0 126.27,19.9 175.4,59.69 48.72,39.78 81.62,97.43 97.85,173.36 82.02,-95.82 151.04,-158.34 207.48,-188.39 56.43,-29.64 114.5,-44.66 174.18,-44.66 57.65,0 109.22,15.02 154.29,44.66 44.66,29.64 80.39,78.37 106.37,146.16 17.45,45.89 26.39,118.15 26.39,216.81l0 469.35c0,67.8 4.87,114.5 15.02,139.67 7.71,17.05 22.33,32.08 43.04,44.26 21.11,12.18 55.21,18.27 102.73,18.27l0 43.85 -533.51 0 0 -43.85 22.74 0c46.28,0 82.83,-8.93 108.8,-27.2 18.27,-12.58 31.27,-32.88 38.98,-60.5 3.25,-13.4 4.87,-51.56 4.87,-114.5l0 -468.94c0,-88.92 -10.55,-151.45 -32.08,-187.99 -31.26,-50.75 -80.8,-76.32 -149.41,-76.32 -41.82,0 -84.45,10.55 -127.08,31.66 -42.23,20.71 -93.79,60.09 -154.29,116.93l-2.43 13.4 4.87 51.16 0 520.1c0,73.9 4.06,120.19 12.18,138.45 8.53,17.86 23.96,33.3 46.69,45.48 22.73,12.18 61.72,18.27 116.53,18.27l0 43.85 -548.12 0 0 -43.85c59.69,0 100.7,-6.9 123.03,-21.11 22.33,-14.2 37.75,-35.73 46.29,-64.16 4.05,-13.39 6.08,-52.37 6.08,-116.93l0 -468.94c0,-88.92 -12.98,-153.07 -38.97,-192.46 -34.92,-51.16 -83.23,-76.74 -145.75,-76.74 -42.64,0 -84.86,11.77 -126.69,34.92 -65.37,34.92 -116.11,74.7 -151.44,118.55l0 584.66c0,71.06 4.87,116.93 14.62,138.45 9.74,21.12 24.36,36.95 43.84,47.91 19.08,10.55 58.07,15.83 116.93,15.83l0 43.85 -538.37 0 0 -43.85c49.94,0 84.85,-5.27 104.75,-15.83 19.89,-10.97 34.92,-27.61 45.48,-51.16 10.15,-23.15 15.42,-68.21 15.42,-135.21l0 -416.57c0,-119.37 -3.65,-196.51 -10.55,-231.43 -5.69,-26.38 -14.21,-44.26 -26.39,-53.99 -11.77,-10.15 -28.02,-15.03 -48.32,-15.03 -22.33,0 -48.72,6.1 -79.58,17.87l-17.85 -43.85 328.86 -133.99 51.16 0 0 233.05zm1751.13 210.32c-0.81,161.19 38.57,287.45 117.75,379.21 79.18,91.35 172.56,137.23 279.74,137.23 71.06,0 133.18,-19.49 185.95,-58.46 52.78,-38.57 97.04,-106.37 132.77,-202.19l36.54 23.95c-16.64,109.63 -64.96,209.1 -144.94,298.01 -79.98,88.91 -180.27,133.58 -300.45,133.58 -130.73,0 -242.79,-50.76 -335.77,-152.67 -92.98,-101.91 -139.67,-238.74 -139.67,-410.48 0,-185.95 47.91,-331.3 143.32,-435.25 95.42,-104.35 215.19,-156.32 359.32,-156.32 121.81,0 222.09,40.19 300.45,120.59 78.37,80.39 117.75,187.98 117.75,322.78l-752.75 0zm0 -68.22l504.27 0c-4.06,-69.83 -12.19,-118.96 -24.77,-147.38 -19.9,-44.26 -49.54,-79.17 -88.91,-104.34 -38.97,-25.59 -79.99,-38.17 -123.03,-38.17 -65.77,0 -124.64,25.58 -176.61,76.74 -51.98,51.16 -82.02,122.21 -90.95,213.15zm1602.53 -375.15l0 370.28 -38.97 0c-30.05,-116.12 -68.62,-194.89 -115.72,-236.7 -46.69,-41.83 -106.78,-62.94 -179.45,-62.94 -55.22,0 -99.88,14.62 -133.99,43.85 -33.7,29.23 -50.76,61.72 -50.76,97.44 0,44.26 12.59,82.42 37.36,114.09 24.36,32.48 74.3,66.99 149.41,103.53l173.78 84.05c160.78,78.77 241.17,182.29 241.17,310.61 0,99.07 -37.35,179.05 -112.46,239.54 -74.71,60.5 -158.76,90.95 -251.33,90.95 -66.58,0 -142.91,-11.78 -228.17,-34.92 -26.39,-7.72 -47.91,-11.37 -64.56,-11.37 -17.86,0 -32.48,9.75 -42.63,29.23l-38.97 0 0 -389.77 38.97 0c22.34,111.24 64.56,195.29 127.49,251.72 62.52,56.43 132.77,84.45 210.72,84.45 54.4,0 99.07,-15.83 133.57,-47.91 34.51,-32.08 51.97,-71.05 51.97,-116.11 0,-54.41 -19.49,-100.3 -58.06,-137.65 -38.57,-37.35 -115.31,-84.05 -230.61,-140.88 -114.9,-56.85 -190.02,-108 -225.74,-154.29 -35.32,-45.06 -53.19,-102.31 -53.19,-171.34 0,-89.73 30.86,-164.83 92.16,-225.33 61.31,-60.5 140.48,-90.55 237.93,-90.55 43.03,0 94.6,9.34 155.9,28.02 40.19,12.18 66.99,18.27 80.4,18.27 12.98,0 22.73,-2.84 30.04,-8.52 6.91,-5.69 15.42,-18.28 24.77,-37.76l38.97 0z"/>
    <g>
     <path class="fil6" d="M4543.48 2354.97c26.56,0 49.21,9.41 68.05,28.13 18.71,18.84 28.14,41.49 28.14,68.05 0,26.56 -9.43,49.2 -28.14,68.05 -18.84,18.71 -41.49,28.13 -68.05,28.13 -26.56,0 -49.2,-9.42 -68.04,-28.13 -18.72,-18.85 -28.14,-41.49 -28.14,-68.05 0,-26.56 9.29,-49.21 28.01,-68.05 18.58,-18.72 41.36,-28.13 68.18,-28.13zm450.19 226.79c-21.34,-10.47 -37.82,-25 -49.34,-43.84 -11.39,-18.71 -17.15,-39.39 -17.15,-62.16 0,-34.68 13.09,-64.53 39.27,-89.52 26.04,-25 59.55,-37.56 100.37,-37.56 33.36,0 62.29,8.12 86.76,24.35l74.2 0c11,0 17.41,0.26 19.11,0.91 1.83,0.65 3.14,1.7 3.79,3.27 1.57,2.35 2.35,6.41 2.35,12.3 0,6.67 -0.65,11.26 -1.96,13.87 -0.65,1.18 -2.09,2.23 -3.93,3.02 -1.96,0.78 -8.37,1.17 -19.37,1.17l-45.67 0c14.26,18.32 21.46,41.88 21.46,70.54 0,32.59 -12.43,60.59 -37.43,83.88 -24.99,23.17 -58.5,34.81 -100.64,34.81 -17.27,0 -34.94,-2.62 -53.13,-7.72 -11.12,9.82 -18.71,18.31 -22.77,25.65 -3.93,7.32 -5.89,13.47 -5.89,18.57 0,4.46 2.09,8.64 6.28,12.7 4.32,4.19 12.56,7.07 24.74,8.9 7.19,1.05 25.12,2.09 53.78,2.87 52.61,1.32 86.76,3.28 102.34,5.76 23.82,3.27 42.8,12.17 56.92,26.44 14.26,14.39 21.33,31.93 21.33,53 0,28.78 -13.47,56.01 -40.57,81.27 -39.91,37.29 -91.86,56 -155.99,56 -49.34,0 -90.96,-11.11 -124.85,-33.36 -19.24,-12.82 -28.79,-26.18 -28.79,-39.91 0,-6.16 1.44,-12.3 4.19,-18.45 4.32,-9.43 13.36,-22.65 26.83,-39.53 1.83,-2.35 14.79,-16.1 39.13,-41.48 -13.35,-7.99 -22.64,-15.06 -28.13,-21.33 -5.5,-6.29 -8.25,-13.48 -8.25,-21.47 0,-9.04 3.66,-19.51 10.86,-31.67 7.19,-12.04 23.95,-29.18 50.12,-51.3zm66.74 -214.23c-18.84,0 -34.68,7.45 -47.37,22.5 -12.7,15.05 -19.11,38.09 -19.11,69.1 0,40.31 8.63,71.45 26.04,93.57 13.22,16.88 29.97,25.26 50.39,25.26 19.36,0 35.33,-7.2 47.77,-21.72 12.43,-14.53 18.71,-37.3 18.71,-68.45 0,-40.43 -8.77,-72.11 -26.31,-95.01 -13.09,-16.88 -29.71,-25.25 -50.12,-25.25zm-70.27 343.13c-12.04,12.96 -21.07,25.12 -27.09,36.38 -6.15,11.26 -9.15,21.59 -9.15,31.01 0,12.18 7.45,22.91 22.24,32.19 25.38,15.84 62.29,23.69 110.45,23.69 45.94,0 79.84,-8.12 101.56,-24.35 21.85,-16.22 32.71,-33.5 32.71,-51.95 0,-13.35 -6.54,-22.77 -19.5,-28.4 -13.35,-5.63 -39.53,-8.9 -78.78,-9.95 -57.45,-1.57 -101.56,-4.45 -132.44,-8.63zm405.82 -361.99l0 79.31c29.18,-52.87 59.15,-79.31 89.9,-79.31 13.88,0 25.39,4.32 34.56,12.96 9.15,8.51 13.73,18.46 13.73,29.71 0,10.07 -3.27,18.57 -9.82,25.52 -6.67,6.93 -14.52,10.33 -23.55,10.33 -8.9,0 -18.85,-4.45 -29.85,-13.35 -11.12,-8.89 -19.36,-13.34 -24.6,-13.34 -4.58,0 -9.56,2.61 -14.92,7.71 -11.39,10.47 -23.3,27.88 -35.47,51.96l0 168.03c0,19.51 2.49,34.42 7.33,44.37 3.27,6.92 9.15,12.69 17.54,17.13 8.51,4.59 20.54,6.81 36.38,6.81l0 14.14 -179.82 0 0 -14.14c17.8,0 31.01,-2.75 39.66,-8.37 6.42,-4.19 10.86,-10.6 13.35,-19.63 1.31,-4.32 1.96,-16.75 1.96,-37.17l0 -135.84c0,-40.83 -0.79,-65.04 -2.49,-72.89 -1.7,-7.72 -4.71,-13.47 -9.16,-17.01 -4.45,-3.53 -10.07,-5.37 -16.62,-5.37 -7.98,0 -16.87,1.97 -26.82,5.76l-3.8 -14.14 106.4 -43.19 16.1 0zm356.48 310.95c-36,27.87 -58.63,44.09 -67.93,48.41 -13.73,6.42 -28.39,9.69 -43.97,9.69 -24.35,0 -44.36,-8.37 -60.07,-25 -15.69,-16.62 -23.55,-38.47 -23.55,-65.57 0,-17.14 3.79,-32.06 11.52,-44.5 10.47,-17.4 28.66,-33.77 54.57,-49.2 26.05,-15.31 69.1,-34.03 129.43,-56.01l0 -13.74c0,-34.94 -5.49,-58.89 -16.62,-71.97 -11.12,-12.96 -27.22,-19.51 -48.42,-19.51 -15.96,0 -28.78,4.31 -38.21,13.09 -9.68,8.63 -14.52,18.58 -14.52,29.84l0.79 22.24c0,11.78 -3.02,20.94 -9.04,27.35 -6.01,6.42 -14,9.56 -23.68,9.56 -9.56,0 -17.4,-3.27 -23.42,-9.95 -6.02,-6.67 -9.03,-15.84 -9.03,-27.35 0,-21.98 11.25,-42.27 33.76,-60.73 22.51,-18.45 54.19,-27.61 94.88,-27.61 31.28,0 56.8,5.24 76.82,15.7 15.05,7.86 26.17,20.28 33.37,37.18 4.58,10.86 6.93,33.36 6.93,67.26l0 119.1c0,33.36 0.66,53.91 1.97,61.37 1.31,7.59 3.4,12.56 6.27,15.18 3.02,2.48 6.42,3.79 10.21,3.79 4.19,0 7.73,-0.92 10.86,-2.62 5.37,-3.4 15.7,-12.7 31.16,-28.01l0 21.47c-28.79,38.61 -56.28,57.85 -82.45,57.85 -12.56,0 -22.64,-4.32 -30.1,-12.96 -7.46,-8.77 -11.26,-23.56 -11.52,-44.36zm0 -25l0 -133.62c-38.87,15.31 -63.87,26.17 -75.25,32.59 -20.28,11.26 -34.81,22.91 -43.58,35.21 -8.77,12.3 -13.09,25.65 -13.09,40.17 0,18.45 5.5,33.63 16.62,45.8 10.99,12.17 23.82,18.19 38.2,18.19 19.51,0 45.16,-12.82 77.09,-38.34zm40.83 -456.34l-112.67 131.91 -12.96 0 40.04 -131.91 85.59 0zm226.01 180.59l145.92 0c28.39,0 46.85,-0.52 55.21,-1.57l17.15 0 0 271.68c0,28.4 3.4,46.59 10.21,54.7 6.93,7.98 22.37,12.3 46.33,12.82l0 14.14 -176.69 0 0 -14.14c25.27,0 41.62,-5.49 48.83,-16.49 5.1,-7.72 7.71,-24.73 7.71,-51.04l0 -185.84c0,-23.82 -1.31,-38.08 -3.79,-42.92 -1.96,-3.93 -5.89,-6.93 -11.52,-9.03 -5.76,-2.22 -23.95,-3.27 -54.84,-3.27l-84.53 0 0 228.5c0,27.61 1.57,45.41 4.58,53.66 2.35,6.15 7.07,11.38 14.26,15.7 11.39,7.19 21.07,10.73 29.31,10.73l16.23 0 0 14.14 -192.38 0 0 -14.14 13.74 0c17.93,0 30.89,-4.97 38.74,-14.78 7.98,-9.82 11.91,-31.55 11.91,-65.31l0 -228.5 -68.31 0 0 -29.05 68.31 0c0,-46.71 6.41,-83.23 19.23,-109.4 12.96,-26.18 31.93,-46.85 57.19,-61.91 25.26,-15.05 53.79,-22.64 85.59,-22.64 21.98,0 41.87,3.67 59.68,10.86 17.8,7.33 31.01,16.62 39.52,27.88 8.51,11.38 12.82,21.98 12.82,31.92 0,8.77 -2.88,15.97 -8.63,21.86 -5.89,5.89 -12.7,8.77 -20.68,8.77 -8.77,0 -16.23,-2.23 -22.51,-6.67 -6.15,-4.46 -16.49,-17.02 -30.89,-37.7 -8.24,-12.03 -17.14,-20.67 -26.43,-26.04 -7.2,-3.79 -15.97,-5.76 -26.57,-5.76 -12.96,0 -25.78,5.23 -38.47,15.7 -12.82,10.48 -21.59,22.51 -26.43,36.12 -6.55,18.32 -9.82,50.64 -9.82,96.71l0 20.28zm618.88 218.17c-9.42,46.45 -28.02,81.92 -55.62,106.65 -27.61,24.73 -58.11,37.17 -91.61,37.17 -39.91,0 -74.72,-16.76 -104.3,-50.26 -29.71,-33.36 -44.5,-78.65 -44.5,-135.71 0,-55.1 16.36,-99.99 49.21,-134.53 32.84,-34.42 72.23,-51.7 118.17,-51.7 34.56,0 62.82,9.16 85.06,27.49 22.25,18.19 33.37,37.17 33.37,56.92 0,9.69 -3.15,17.54 -9.42,23.56 -6.29,6.02 -14.92,9.03 -26.17,9.03 -15.06,0 -26.32,-4.84 -33.77,-14.66 -4.58,-5.37 -7.6,-15.7 -9.03,-30.89 -1.44,-15.17 -6.55,-26.82 -15.44,-34.81 -9.03,-7.72 -21.33,-11.52 -37.17,-11.52 -25.65,0 -46.2,9.43 -61.77,28.41 -20.67,25.12 -31.01,58.23 -31.01,99.58 0,42.01 10.34,79.04 30.88,111.24 20.69,32.06 48.42,48.15 83.5,48.15 25.13,0 47.64,-8.37 67.53,-25.26 14.14,-11.64 27.75,-33.11 41.1,-64.26l11 5.38zm248 82.58c-35.99,27.87 -58.63,44.09 -67.92,48.41 -13.74,6.42 -28.4,9.69 -43.98,9.69 -24.35,0 -44.36,-8.37 -60.06,-25 -15.7,-16.62 -23.56,-38.47 -23.56,-65.57 0,-17.14 3.79,-32.06 11.52,-44.5 10.47,-17.4 28.66,-33.77 54.57,-49.2 26.05,-15.31 69.1,-34.03 129.43,-56.01l0 -13.74c0,-34.94 -5.49,-58.89 -16.62,-71.97 -11.12,-12.96 -27.22,-19.51 -48.42,-19.51 -15.96,0 -28.78,4.31 -38.21,13.09 -9.68,8.63 -14.52,18.58 -14.52,29.84l0.79 22.24c0,11.78 -3.01,20.94 -9.04,27.35 -6.01,6.42 -14,9.56 -23.68,9.56 -9.56,0 -17.4,-3.27 -23.42,-9.95 -6.02,-6.67 -9.03,-15.84 -9.03,-27.35 0,-21.98 11.25,-42.27 33.76,-60.73 22.51,-18.45 54.19,-27.61 94.88,-27.61 31.28,0 56.8,5.24 76.82,15.7 15.05,7.86 26.17,20.28 33.37,37.18 4.58,10.86 6.93,33.36 6.93,67.26l0 119.1c0,33.36 0.66,53.91 1.97,61.37 1.31,7.59 3.4,12.56 6.27,15.18 3.02,2.48 6.42,3.79 10.21,3.79 4.19,0 7.73,-0.92 10.86,-2.62 5.37,-3.4 15.7,-12.7 31.16,-28.01l0 21.47c-28.79,38.61 -56.28,57.85 -82.45,57.85 -12.56,0 -22.64,-4.32 -30.1,-12.96 -7.46,-8.77 -11.26,-23.56 -11.52,-44.36zm0 -25l0 -133.62c-38.87,15.31 -63.87,26.17 -75.25,32.59 -20.28,11.26 -34.81,22.91 -43.58,35.21 -8.77,12.3 -13.08,25.65 -13.08,40.17 0,18.45 5.49,33.63 16.62,45.8 10.99,12.17 23.82,18.19 38.21,18.19 19.5,0 45.15,-12.82 77.08,-38.34zm405.03 -143.04c-0.26,51.96 12.44,92.66 37.96,122.23 25.53,29.45 55.62,44.24 90.17,44.24 22.9,0 42.92,-6.28 59.93,-18.84 17.02,-12.44 31.28,-34.29 42.8,-65.17l11.78 7.72c-5.37,35.33 -20.94,67.4 -46.72,96.05 -25.78,28.67 -58.1,43.06 -96.84,43.06 -42.14,0 -78.26,-16.37 -108.24,-49.21 -29.96,-32.85 -45.01,-76.95 -45.01,-132.31 0,-59.94 15.44,-106.79 46.2,-140.3 30.75,-33.62 69.36,-50.38 115.82,-50.38 39.27,0 71.59,12.96 96.85,38.87 25.26,25.92 37.96,60.6 37.96,104.04l-242.64 0zm0 -21.98l162.54 0c-1.31,-22.5 -3.92,-38.35 -7.98,-47.51 -6.41,-14.26 -15.96,-25.52 -28.66,-33.62 -12.56,-8.25 -25.78,-12.3 -39.66,-12.3 -21.2,0 -40.17,8.24 -56.92,24.73 -16.75,16.49 -26.44,39.4 -29.32,68.71zm544.81 21.98c-0.26,51.96 12.44,92.66 37.96,122.23 25.52,29.45 55.62,44.24 90.16,44.24 22.91,0 42.93,-6.28 59.94,-18.84 17.02,-12.44 31.28,-34.29 42.8,-65.17l11.78 7.72c-5.37,35.33 -20.95,67.4 -46.72,96.05 -25.78,28.67 -58.1,43.06 -96.84,43.06 -42.14,0 -78.26,-16.37 -108.24,-49.21 -29.96,-32.85 -45.01,-76.95 -45.01,-132.31 0,-59.94 15.44,-106.79 46.2,-140.3 30.75,-33.62 69.36,-50.38 115.82,-50.38 39.26,0 71.59,12.96 96.85,38.87 25.26,25.92 37.96,60.6 37.96,104.04l-242.64 0zm0 -21.98l162.54 0c-1.31,-22.5 -3.92,-38.35 -7.98,-47.51 -6.42,-14.26 -15.96,-25.52 -28.66,-33.62 -12.56,-8.25 -25.78,-12.3 -39.66,-12.3 -21.2,0 -40.17,8.24 -56.92,24.73 -16.76,16.49 -26.44,39.4 -29.32,68.71zm537.74 200.49c-17.14,18.19 -33.89,31.15 -50.26,38.99 -16.36,7.86 -34.02,11.78 -52.87,11.78 -38.34,0 -71.85,-15.97 -100.51,-48.03 -28.66,-32.07 -42.92,-73.29 -42.92,-123.55 0,-50.25 15.84,-96.32 47.5,-138.07 31.81,-41.74 72.5,-62.55 122.37,-62.55 30.89,0 56.54,9.95 76.69,29.71l0 -65.05c0,-39.91 -0.92,-64.39 -2.88,-73.55 -1.96,-9.16 -4.97,-15.43 -9.03,-18.71 -4.19,-3.27 -9.3,-4.97 -15.44,-4.97 -6.67,0 -15.44,2.09 -26.56,6.15l-4.97 -14.13 105.22 -43.19 17.28 0 0 405.95c0,40.96 0.91,65.96 2.87,74.98 1.96,8.9 4.97,15.32 9.3,18.85 4.19,3.53 9.15,5.37 14.78,5.37 6.94,0 16.1,-2.23 27.75,-6.55l4.19 14.14 -104.82 43.19 -17.67 0 0 -50.78zm0 -26.83l0 -179.94c-1.58,-17.54 -6.15,-33.5 -13.87,-47.77 -7.6,-14.39 -17.8,-25.12 -30.5,-32.45 -12.69,-7.2 -24.99,-10.86 -37.03,-10.86 -22.51,0 -42.66,10.07 -60.32,30.23 -23.3,26.56 -34.95,65.3 -34.95,116.34 0,51.55 11.26,91.08 33.77,118.56 22.51,27.35 47.64,41.1 75.25,41.1 23.42,0 45.94,-11.78 67.66,-35.21zm234.65 -478.32c10.6,0 19.76,3.79 27.35,11.26 7.45,7.59 11.25,16.75 11.25,27.35 0,10.73 -3.79,20.01 -11.25,27.61 -7.6,7.72 -16.75,11.52 -27.35,11.52 -10.74,0 -20.02,-3.79 -27.62,-11.52 -7.71,-7.6 -11.52,-16.88 -11.52,-27.61 0,-10.6 3.8,-19.77 11.26,-27.35 7.6,-7.46 16.88,-11.26 27.88,-11.26zm31.53 183.74l0 282.68c0,21.86 1.58,36.38 4.85,43.58 3.14,7.33 7.86,12.69 14.13,16.22 6.29,3.54 17.81,5.37 34.42,5.37l0 14.14 -170.4 0 0 -14.14c17.02,0 28.53,-1.7 34.3,-4.97 5.89,-3.27 10.47,-8.76 14,-16.36 3.4,-7.6 5.1,-22.25 5.1,-43.84l0 -135.84c0,-37.82 -1.17,-62.29 -3.4,-73.55 -1.83,-8.12 -4.58,-13.74 -8.51,-16.88 -3.79,-3.27 -9.03,-4.84 -15.57,-4.84 -7.2,0 -15.84,1.97 -26.05,5.76l-5.37 -14.14 105.62 -43.19 16.87 0zm199.32 -105.21l0 115.42 82.06 0 0 25.91 -82.06 0.79 0 227.85c0,22.77 3.27,38.2 9.82,46.06 6.41,7.98 14.79,11.91 24.99,11.91 8.51,0 16.62,-2.62 24.61,-7.98 7.86,-5.23 14,-13.09 18.31,-23.42l14.92 0c-8.89,25.25 -21.59,44.23 -37.95,57.06 -16.49,12.69 -33.37,19.1 -50.79,19.1 -11.77,0 -23.29,-3.27 -34.55,-9.82 -11.26,-6.54 -19.5,-15.97 -24.86,-28.14 -5.36,-12.17 -8.12,-30.88 -8.12,-56.27l0 -237.13 -55.74 0 0 -12.17c14.13,-5.63 28.52,-15.05 43.31,-28.26 14.79,-13.35 27.87,-29.19 39.52,-47.64 5.89,-9.69 14.14,-27.49 24.73,-53.26l11.78 0zm288.44 105.21c53.25,0 95.92,20.16 128.12,60.59 27.34,34.42 41.09,74.08 41.09,118.83 0,31.41 -7.59,63.21 -22.64,95.41 -15.05,32.18 -35.86,56.53 -62.29,72.89 -26.56,16.36 -56.01,24.47 -88.47,24.47 -53,0 -95.14,-21.07 -126.28,-63.21 -26.31,-35.6 -39.52,-75.38 -39.52,-119.62 0,-32.18 7.98,-64.25 23.94,-96.05 15.97,-31.81 37.04,-55.36 63.21,-70.54 26.05,-15.17 53.66,-22.77 82.84,-22.77zm-11.91 25.12c-13.48,0 -27.09,4.06 -40.84,12.04 -13.61,8.12 -24.74,22.12 -33.11,42.28 -8.51,20.15 -12.7,46.06 -12.7,77.74 0,51.04 10.2,95 30.49,132.05 20.28,37.03 47.11,55.48 80.35,55.48 24.74,0 45.16,-10.21 61.25,-30.62 16.1,-20.42 24.21,-55.49 24.21,-105.22 0,-62.29 -13.47,-111.24 -40.3,-146.97 -18.07,-24.47 -41.23,-36.77 -69.36,-36.77zm335.02 -25.12l0 79.31c29.18,-52.87 59.15,-79.31 89.9,-79.31 13.87,0 25.38,4.32 34.55,12.96 9.16,8.51 13.74,18.46 13.74,29.71 0,10.07 -3.27,18.57 -9.82,25.52 -6.67,6.93 -14.52,10.33 -23.56,10.33 -8.89,0 -18.84,-4.45 -29.84,-13.35 -11.12,-8.89 -19.36,-13.34 -24.6,-13.34 -4.58,0 -9.56,2.61 -14.92,7.71 -11.38,10.47 -23.29,27.88 -35.46,51.96l0 168.03c0,19.51 2.48,34.42 7.33,44.37 3.27,6.92 9.15,12.69 17.53,17.13 8.51,4.59 20.55,6.81 36.39,6.81l0 14.14 -179.82 0 0 -14.14c17.8,0 31.01,-2.75 39.66,-8.37 6.42,-4.19 10.86,-10.6 13.35,-19.63 1.31,-4.32 1.96,-16.75 1.96,-37.17l0 -135.84c0,-40.83 -0.79,-65.04 -2.49,-72.89 -1.7,-7.72 -4.71,-13.47 -9.16,-17.01 -4.45,-3.53 -10.07,-5.37 -16.62,-5.37 -7.99,0 -16.88,1.97 -26.82,5.76l-3.8 -14.14 106.4 -43.19 16.1 0zm356.47 310.95c-35.99,27.87 -58.62,44.09 -67.92,48.41 -13.73,6.42 -28.39,9.69 -43.97,9.69 -24.35,0 -44.36,-8.37 -60.07,-25 -15.7,-16.62 -23.56,-38.47 -23.56,-65.57 0,-17.14 3.8,-32.06 11.52,-44.5 10.47,-17.4 28.66,-33.77 54.57,-49.2 26.04,-15.31 69.1,-34.03 129.42,-56.01l0 -13.74c0,-34.94 -5.49,-58.89 -16.62,-71.97 -11.12,-12.96 -27.23,-19.51 -48.42,-19.51 -15.96,0 -28.79,4.31 -38.21,13.09 -9.68,8.63 -14.52,18.58 -14.52,29.84l0.78 22.24c0,11.78 -3.01,20.94 -9.03,27.35 -6.01,6.42 -14,9.56 -23.68,9.56 -9.56,0 -17.4,-3.27 -23.42,-9.95 -6.02,-6.67 -9.04,-15.84 -9.04,-27.35 0,-21.98 11.26,-42.27 33.77,-60.73 22.51,-18.45 54.18,-27.61 94.88,-27.61 31.28,0 56.8,5.24 76.82,15.7 15.05,7.86 26.17,20.28 33.37,37.18 4.57,10.86 6.93,33.36 6.93,67.26l0 119.1c0,33.36 0.65,53.91 1.96,61.37 1.32,7.59 3.41,12.56 6.28,15.18 3.01,2.48 6.42,3.79 10.21,3.79 4.19,0 7.72,-0.92 10.86,-2.62 5.37,-3.4 15.7,-12.7 31.15,-28.01l0 21.47c-28.79,38.61 -56.27,57.85 -82.44,57.85 -12.56,0 -22.65,-4.32 -30.1,-12.96 -7.46,-8.77 -11.26,-23.56 -11.52,-44.36zm0 -25l0 -133.62c-38.86,15.31 -63.86,26.17 -75.24,32.59 -20.29,11.26 -34.81,22.91 -43.58,35.21 -8.77,12.3 -13.09,25.65 -13.09,40.17 0,18.45 5.49,33.63 16.62,45.8 10.99,12.17 23.81,18.19 38.2,18.19 19.51,0 45.15,-12.82 77.08,-38.34zm483.56 -248.27l0 231.64c0,32.59 3.53,53.14 10.74,61.77 9.55,11.12 22.24,16.75 38.2,16.75l31.93 0 0 14.14 -210.43 0 0 -14.14 15.7 0c10.21,0 19.63,-2.49 28.01,-7.59 8.51,-5.1 14.27,-12.04 17.4,-20.68 3.27,-8.63 4.84,-25.39 4.84,-50.26l0 -231.64 -68.3 0 0 -27.48 68.3 0 0 -22.9c0,-34.81 5.64,-64.39 16.89,-88.61 11.25,-24.08 28.52,-43.7 51.69,-58.5 23.29,-14.92 49.34,-22.37 78.25,-22.37 26.96,0 51.7,8.63 74.34,25.91 14.79,11.38 22.25,24.08 22.25,38.34 0,7.6 -3.27,14.79 -9.95,21.47 -6.67,6.67 -13.87,10.07 -21.6,10.07 -5.89,0 -12.03,-2.09 -18.57,-6.28 -6.55,-4.19 -14.53,-13.09 -24.08,-26.96 -9.43,-13.74 -18.2,-23.03 -26.05,-27.87 -7.98,-4.85 -16.75,-7.2 -26.57,-7.2 -11.77,0 -21.72,3.14 -29.96,9.3 -8.12,6.27 -13.99,15.96 -17.66,29.04 -3.53,13.09 -5.37,46.86 -5.37,101.43l0 25.12 90.3 0 0 27.48 -90.3 0zm432.64 -27.48l0 213.58c0,40.05 0.92,64.52 2.88,73.55 1.97,8.9 4.97,15.18 9.16,18.72 4.19,3.53 9.16,5.37 14.79,5.37 7.85,0 16.75,-2.23 26.7,-6.55l5.36 14.14 -105.22 43.19 -17.27 0 0 -73.68c-30.1,32.45 -53.13,52.74 -68.97,61.12 -15.84,8.37 -32.59,12.56 -50.25,12.56 -19.64,0 -36.65,-5.64 -51.18,-17.02 -14.39,-11.39 -24.47,-26.05 -30.09,-43.97 -5.64,-17.93 -8.38,-43.19 -8.38,-75.91l0 -156.78c0,-16.62 -1.82,-28.14 -5.36,-34.55 -3.67,-6.42 -8.9,-11.39 -15.97,-14.79 -7.06,-3.53 -19.89,-5.11 -38.34,-4.84l0 -14.14 123.28 0 0 235.69c0,32.85 5.63,54.31 17.01,64.52 11.39,10.33 25.12,15.44 41.23,15.44 10.99,0 23.42,-3.4 37.43,-10.34 13.87,-6.93 30.48,-20.15 49.6,-39.65l0 -198.92c0,-20.28 -3.66,-34.03 -11,-41.1 -7.33,-7.19 -22.5,-11 -45.54,-11.52l0 -14.14 120.14 0zm205.72 -193.94l0 466.41c0,21.86 1.58,36.38 4.72,43.45 3.27,7.07 8.12,12.56 14.79,16.23 6.55,3.67 18.98,5.49 37.03,5.49l0 14.14 -171.95 0 0 -14.14c16.09,0 27.08,-1.7 32.97,-4.97 5.89,-3.27 10.47,-8.76 13.88,-16.36 3.27,-7.6 4.97,-22.25 4.97,-43.84l0 -319.58c0,-39.26 -0.91,-63.34 -2.61,-72.24 -1.83,-9.03 -4.72,-15.17 -8.64,-18.45 -3.92,-3.27 -9.03,-4.97 -15.17,-4.97 -6.55,0 -14.92,2.09 -25.12,6.15l-6.55 -14.13 104.43 -43.19 17.27 0zm218.17 0l0 466.41c0,21.86 1.58,36.38 4.72,43.45 3.27,7.07 8.12,12.56 14.78,16.23 6.55,3.67 18.98,5.49 37.03,5.49l0 14.14 -171.95 0 0 -14.14c16.1,0 27.08,-1.7 32.97,-4.97 5.9,-3.27 10.47,-8.76 13.88,-16.36 3.27,-7.6 4.97,-22.25 4.97,-43.84l0 -319.58c0,-39.26 -0.92,-63.34 -2.62,-72.24 -1.82,-9.03 -4.72,-15.17 -8.63,-18.45 -3.93,-3.27 -9.04,-4.97 -15.18,-4.97 -6.54,0 -14.92,2.09 -25.12,6.15l-6.54 -14.13 104.43 -43.19 17.28 0zm395.62 78.52l0 115.42 82.06 0 0 25.91 -82.06 0.79 0 227.85c0,22.77 3.27,38.2 9.82,46.06 6.41,7.98 14.79,11.91 25,11.91 8.5,0 16.62,-2.62 24.6,-7.98 7.86,-5.23 14,-13.09 18.32,-23.42l14.92 0c-8.89,25.25 -21.59,44.23 -37.95,57.06 -16.49,12.69 -33.37,19.1 -50.78,19.1 -11.78,0 -23.3,-3.27 -34.56,-9.82 -11.26,-6.54 -19.5,-15.97 -24.86,-28.14 -5.36,-12.17 -8.12,-30.88 -8.12,-56.27l0 -237.13 -55.74 0 0 -12.17c14.13,-5.63 28.52,-15.05 43.31,-28.26 14.79,-13.35 27.88,-29.19 39.52,-47.64 5.89,-9.69 14.14,-27.49 24.74,-53.26l11.77 0zm205.47 -78.52c10.59,0 19.76,3.79 27.34,11.26 7.46,7.59 11.26,16.75 11.26,27.35 0,10.73 -3.79,20.01 -11.26,27.61 -7.59,7.72 -16.75,11.52 -27.34,11.52 -10.74,0 -20.02,-3.79 -27.62,-11.52 -7.72,-7.6 -11.52,-16.88 -11.52,-27.61 0,-10.6 3.79,-19.77 11.26,-27.35 7.59,-7.46 16.88,-11.26 27.88,-11.26zm31.53 183.74l0 282.68c0,21.86 1.58,36.38 4.85,43.58 3.13,7.33 7.85,12.69 14.13,16.22 6.28,3.54 17.81,5.37 34.42,5.37l0 14.14 -170.4 0 0 -14.14c17.02,0 28.53,-1.7 34.29,-4.97 5.9,-3.27 10.47,-8.76 14.01,-16.36 3.4,-7.6 5.1,-22.25 5.1,-43.84l0 -135.84c0,-37.82 -1.18,-62.29 -3.4,-73.55 -1.83,-8.12 -4.58,-13.74 -8.51,-16.88 -3.79,-3.27 -9.03,-4.84 -15.57,-4.84 -7.2,0 -15.85,1.97 -26.05,5.76l-5.37 -14.14 105.62 -43.19 16.87 0zm201.68 75.12c25.38,-25.65 40.44,-40.44 45.01,-44.36 11.39,-9.69 23.69,-17.28 36.91,-22.65 13.22,-5.37 26.31,-8.12 39.26,-8.12 21.98,0 40.7,6.42 56.53,19.25 15.71,12.82 26.31,31.4 31.54,55.88 26.44,-30.89 48.68,-51.05 66.88,-60.73 18.18,-9.55 36.9,-14.4 56.14,-14.4 18.58,0 35.2,4.85 49.73,14.4 14.4,9.56 25.91,25.26 34.29,47.11 5.63,14.8 8.51,38.09 8.51,69.89l0 151.28c0,21.86 1.57,36.91 4.84,45.02 2.49,5.49 7.19,10.33 13.87,14.26 6.81,3.93 17.8,5.89 33.11,5.89l0 14.14 -171.96 0 0 -14.14 7.33 0c14.92,0 26.7,-2.87 35.07,-8.77 5.89,-4.05 10.07,-10.6 12.56,-19.5 1.05,-4.32 1.58,-16.62 1.58,-36.91l0 -151.15c0,-28.66 -3.41,-48.82 -10.34,-60.59 -10.07,-16.36 -26.05,-24.61 -48.15,-24.61 -13.48,0 -27.23,3.4 -40.97,10.21 -13.61,6.67 -30.22,19.37 -49.73,37.69l-0.78 4.32 1.57 16.49 0 167.64c0,23.82 1.31,38.74 3.93,44.63 2.75,5.76 7.72,10.73 15.05,14.66 7.33,3.93 19.89,5.89 37.56,5.89l0 14.14 -176.68 0 0 -14.14c19.25,0 32.46,-2.22 39.66,-6.81 7.19,-4.57 12.17,-11.52 14.92,-20.68 1.31,-4.31 1.96,-16.87 1.96,-37.69l0 -151.15c0,-28.66 -4.2,-49.34 -12.56,-62.03 -11.26,-16.49 -26.83,-24.73 -46.98,-24.73 -13.74,0 -27.35,3.79 -40.84,11.25 -21.07,11.26 -37.43,24.09 -48.81,38.21l0 188.45c0,22.91 1.57,37.69 4.71,44.63 3.15,6.81 7.86,11.91 14.14,15.43 6.15,3.41 18.71,5.11 37.69,5.11l0 14.14 -173.53 0 0 -14.14c16.1,0 27.34,-1.7 33.76,-5.11 6.42,-3.52 11.26,-8.89 14.66,-16.48 3.27,-7.46 4.98,-21.99 4.98,-43.58l0 -134.26c0,-38.48 -1.18,-63.35 -3.41,-74.6 -1.83,-8.5 -4.58,-14.26 -8.5,-17.4 -3.8,-3.27 -9.04,-4.84 -15.58,-4.84 -7.19,0 -15.7,1.97 -25.65,5.76l-5.75 -14.14 106 -43.19 16.49 0 0 75.12z"/>
     <path class="fil6" d="M12546.08 2491.59c-0.26,51.96 12.43,92.66 37.95,122.23 25.53,29.45 55.63,44.24 90.17,44.24 22.91,0 42.93,-6.28 59.94,-18.84 17.02,-12.44 31.28,-34.29 42.8,-65.17l11.77 7.72c-5.37,35.33 -20.94,67.4 -46.71,96.05 -25.78,28.67 -58.1,43.06 -96.85,43.06 -42.13,0 -78.25,-16.37 -108.23,-49.21 -29.96,-32.85 -45.02,-76.95 -45.02,-132.31 0,-59.94 15.45,-106.79 46.21,-140.3 30.75,-33.62 69.36,-50.38 115.82,-50.38 39.26,0 71.58,12.96 96.85,38.87 25.26,25.92 37.95,60.6 37.95,104.04l-242.63 0zm0 -21.98l162.54 0c-1.31,-22.5 -3.93,-38.35 -7.98,-47.51 -6.42,-14.26 -15.97,-25.52 -28.66,-33.62 -12.56,-8.25 -25.79,-12.3 -39.66,-12.3 -21.2,0 -40.18,8.24 -56.92,24.73 -16.76,16.49 -26.44,39.4 -29.32,68.71zm600.96 -114.63c26.56,0 49.2,9.41 68.04,28.13 18.72,18.84 28.14,41.49 28.14,68.05 0,26.56 -9.42,49.2 -28.14,68.05 -18.84,18.71 -41.48,28.13 -68.04,28.13 -26.56,0 -49.21,-9.42 -68.05,-28.13 -18.72,-18.85 -28.14,-41.49 -28.14,-68.05 0,-26.56 9.29,-49.21 28.01,-68.05 18.58,-18.72 41.36,-28.13 68.19,-28.13z"/>
    </g>
   </g>
  </g>
 </g>
</svg>
