<?xml version="1.0" encoding="UTF-8"?>
<!DOCTYPE svg PUBLIC "-//W3C//DTD SVG 1.1//EN" "http://www.w3.org/Graphics/SVG/1.1/DTD/svg11.dtd">
<!-- Creator: CorelDRAW 2021 (64 Bit) -->
<svg xmlns="http://www.w3.org/2000/svg" xml:space="preserve" width="165.586mm" height="134.464mm" version="1.1" style="shape-rendering:geometricPrecision; text-rendering:geometricPrecision; image-rendering:optimizeQuality; fill-rule:evenodd; clip-rule:evenodd"
viewBox="0 0 16544.39 13434.88"
 xmlns:xlink="http://www.w3.org/1999/xlink"
 xmlns:xodm="http://www.corel.com/coreldraw/odm/2003">
 <defs>
  <style type="text/css">
   <![CDATA[
    .fil2 {fill:#444444}
    .fil0 {fill:#444444}
    .fil5 {fill:#2E2E2D}
    .fil4 {fill:#FFEC1B}
    .fil3 {fill:#C5127C}
    .fil1 {fill:#009EE0}
    .fil6 {fill:#2E2E2D;fill-rule:nonzero}
   ]]>
  </style>
 </defs>
 <g id="Camada_x0020_1">
  <metadata id="CorelCorpID_0Corel-Layer"/>
  <g id="_1708595794272">
   <path class="fil0" d="M2359.76 8985.35c5097.47,-2255.31 6677.61,-1968.98 9381.51,-487.15l-1630.6 -5386.18c-686.97,170.64 -6631.93,1600.31 -7750.92,5873.33z"/>
   <path class="fil1" d="M2359.76 8985.35c5208.63,-2460.31 6823.21,-2237.53 9586.08,-864.44l-1666.16 -5320.6c-701.95,198.27 -6776.53,1867.01 -7919.93,6185.03z"/>
   <path class="fil2" d="M2359.76 8985.35c1578.51,-1301.09 4220.78,-2857.57 5543.05,-3296.92 2036.99,-676.83 4080.52,-301.11 6285.69,525.89l-2602.32 -4701.23c-535.22,557.85 -8097.71,3191.89 -9226.41,7472.27z"/>
   <path class="fil3" d="M2359.76 8985.35c1599.05,-1353.74 4275.69,-2998.35 5615.15,-3481.8 2063.49,-744.77 4133.6,-437.2 6367.46,316.24l-2636.18 -4614.44c-974.03,269.81 -8203.04,3461.98 -9346.43,7780z"/>
   <path class="fil2" d="M2359.76 8985.35c575.42,-693.94 1891.71,-2941.81 4344.13,-4265.34 1353.11,-730.26 2635.79,-1024.28 5163.34,-930.35l-3341.68 -3558.64c-632.32,461.33 -5150.75,4370.22 -6165.79,8754.32z"/>
   <path class="fil4" d="M2359.76 8985.35c583.64,-715.5 1918.71,-3012.69 4406.12,-4428.12 1372.43,-780.96 2673.41,-1123.03 5237.03,-1123.8l-3389.36 -3433.43c-641.35,485.02 -5224.26,4563.21 -6253.78,8985.35z"/>
   <path class="fil2" d="M2359.78 8985.41c1010.62,-3171.3 2671.27,-5309.3 5710.67,-5255.73l-3089.38 -1978.34c-1975.21,3268.57 -2651.1,5215.33 -2621.29,7234.07z"/>
   <path class="fil5" d="M2359.76 8985.35c985.55,-3240.95 2605.03,-5493.42 5569.05,-5649.32l-3012.77 -1765.41c-1926.23,3404.7 -2585.35,5398.04 -2556.29,7414.73z"/>
   <path class="fil6" d="M638.64 9936.7c214.24,-255.86 418.25,-384.13 612.02,-384.13 99.61,0 185.58,25.24 257.22,75.05 72.33,49.81 128.96,132.37 171.94,247 29.34,80.51 43.67,203.32 43.67,368.44l0 783.28c0,115.31 9.55,193.09 27.97,234.71 14.33,32.75 38.22,58.68 70.28,77.1 32.75,18.42 92.79,27.98 180.12,27.98l0 73.69 -904.72 0 0 -73.69 38.21 0c84.61,0 143.97,-12.97 178.08,-38.9 33.43,-25.93 57.31,-64.13 70.28,-113.94 5.46,-19.78 8.18,-82.56 8.18,-186.95l0 -753.94c0,-167.17 -21.83,-289.29 -64.81,-365.03 -42.98,-75.73 -115.31,-113.26 -217.65,-113.26 -157.61,0 -314.54,86.65 -470.78,260.64l0 971.59c0,123.49 7.5,199.23 21.83,228.57 19.1,38.21 45.03,66.18 77.78,84.61 32.75,17.73 98.93,26.61 199.23,26.61l0 73.69 -908.82 0 0 -73.69 40.26 0c93.47,0 156.25,-23.2 189,-70.28 32.74,-47.08 49.12,-137.14 49.12,-269.51l0 -679.56c0,-219.7 -4.78,-353.44 -15.01,-401.19 -10.23,-48.45 -25.25,-81.2 -45.71,-98.26 -20.47,-17.06 -48.45,-25.93 -82.56,-25.93 -37.53,0 -81.88,10.24 -133.73,30.02l-30.02 -73.69 552.66 -225.16 85.98 0 0 384.13zm1817.64 360.94c-1.37,270.87 64.81,483.06 197.86,637.26 133.06,153.52 289.98,230.62 470.11,230.62 119.41,0 223.8,-32.75 312.49,-98.26 88.7,-64.81 163.07,-178.76 223.12,-339.78l61.41 40.26c-27.98,184.22 -109.17,351.38 -243.58,500.81 -134.41,149.42 -302.94,224.48 -504.91,224.48 -219.7,0 -408.02,-85.3 -564.26,-256.55 -156.25,-171.25 -234.71,-401.19 -234.71,-689.81 0,-312.49 80.51,-556.75 240.85,-731.42 160.34,-175.36 361.62,-262.68 603.83,-262.68 204.69,0 373.22,67.54 504.91,202.64 131.69,135.09 197.87,315.91 197.87,542.43l-1264.98 0zm0 -114.63l847.41 0c-6.82,-117.35 -20.47,-199.91 -41.61,-247.68 -33.44,-74.37 -83.25,-133.05 -149.43,-175.35 -65.49,-42.98 -134.41,-64.13 -206.73,-64.13 -110.53,0 -209.47,42.98 -296.8,128.96 -87.33,85.97 -137.82,205.37 -152.83,358.2zm1408.27 -577.22l767.58 0 0 73.69c-70.27,5.47 -116.67,17.74 -138.5,38.21 -22.52,19.79 -33.43,48.45 -33.43,85.98 0,40.93 11.6,91.42 34.11,150.1l395.05 1053.47 397.1 -861.06 -104.39 -266.78c-32.06,-79.83 -73.69,-135.09 -126.22,-165.8 -29.34,-19.1 -83.93,-30.02 -163.76,-34.12l0 -73.69 866.52 0 0 73.69c-93.48,4.1 -159.66,21.83 -198.55,53.22 -25.93,21.83 -38.89,56.63 -38.89,104.39 0,25.25 5.46,51.86 15.69,78.46l414.84 1045.97 384.82 -1007.76c27.29,-72.32 40.93,-129.64 40.93,-171.93 0,-25.93 -12.97,-48.45 -38.9,-68.23 -26.61,-19.79 -77.78,-31.39 -154.2,-34.12l0 -73.69 575.86 0 0 73.69c-115.99,17.06 -201.28,95.53 -255.86,234.72l-611.34 1578.84 -80.51 0 -458.51 -1172.88 -540.38 1172.88 -69.59 0 -589.51 -1539.27c-38.89,-97.57 -76.41,-163.07 -113.94,-197.18 -37.53,-34.12 -96.21,-60.05 -176.03,-77.1l0 -73.69zm4617.8 -601.79l0 601.79 427.8 0 0 135.09 -427.8 4.1 0 1187.89c0,118.72 17.06,199.23 51.17,240.16 33.43,41.62 77.1,62.09 130.32,62.09 44.35,0 86.66,-13.64 128.28,-41.61 40.93,-27.3 73.01,-68.23 95.52,-122.13l77.78 0c-46.4,131.69 -112.58,230.62 -197.87,297.48 -85.97,66.18 -173.98,99.61 -264.73,99.61 -61.41,0 -121.45,-17.06 -180.12,-51.18 -58.68,-34.11 -101.66,-83.24 -129.64,-146.69 -27.98,-63.45 -42.3,-161.02 -42.3,-293.39l0 -1236.33 -290.66 0 0 -63.46c73.69,-29.33 148.74,-78.46 225.85,-147.37 77.09,-69.59 145.32,-152.15 206.05,-248.36 30.7,-50.49 73.69,-143.29 128.96,-277.7l61.41 0zm1071.21 -409.38c55.26,0 103.02,19.79 142.6,58.68 38.89,39.58 58.68,87.33 58.68,142.6 0,55.95 -19.79,104.4 -58.68,143.97 -39.58,40.26 -87.33,60.05 -142.6,60.05 -55.95,0 -104.4,-19.79 -143.97,-60.05 -40.26,-39.57 -60.05,-88.01 -60.05,-143.97 0,-55.26 19.79,-103.02 58.68,-142.6 39.58,-38.89 88.01,-58.68 145.33,-58.68zm164.43 957.96l0 1473.76c0,113.94 8.19,189.68 25.25,227.2 16.38,38.21 40.93,66.18 73.69,84.61 32.75,18.42 92.79,27.98 179.45,27.98l0 73.69 -888.35 0 0 -73.69c88.7,0 148.74,-8.87 178.77,-25.93 30.7,-17.06 54.58,-45.71 73.01,-85.29 17.73,-39.58 26.61,-115.99 26.61,-228.57l0 -708.23c0,-197.18 -6.14,-324.77 -17.74,-383.45 -9.55,-42.3 -23.88,-71.64 -44.34,-88.01 -19.79,-17.06 -47.08,-25.25 -81.2,-25.25 -37.53,0 -82.56,10.24 -135.77,30.02l-27.98 -73.69 550.62 -225.16 88.01 0zm1051.42 391.63c132.37,-133.72 210.83,-210.83 234.71,-231.3 59.36,-50.49 123.49,-90.06 192.4,-118.04 68.92,-27.97 137.15,-42.29 204.69,-42.29 114.63,0 212.2,33.43 294.76,100.29 81.87,66.86 137.14,163.75 164.43,291.34 137.83,-161.02 253.82,-266.09 348.66,-316.59 94.84,-49.81 192.4,-75.05 292.71,-75.05 96.89,0 183.53,25.24 259.27,75.05 75.06,49.81 135.1,131.69 178.77,245.63 29.33,77.1 44.35,198.55 44.35,364.35l0 788.74c0,113.94 8.18,192.4 25.24,234.71 12.97,28.66 37.53,53.9 72.33,74.38 35.48,20.46 92.79,30.7 172.62,30.7l0 73.69 -896.54 0 0 -73.69 38.21 0c77.78,0 139.19,-15.02 182.85,-45.72 30.7,-21.14 52.54,-55.26 65.5,-101.66 5.46,-22.51 8.18,-86.65 8.18,-192.4l0 -788.05c0,-149.43 -17.73,-254.5 -53.89,-315.91 -52.54,-85.29 -135.78,-128.27 -251.09,-128.27 -70.27,0 -141.92,17.73 -213.56,53.21 -70.96,34.8 -157.61,100.98 -259.28,196.5l-4.09 22.52 8.18 85.97 0 874.03c0,124.18 6.82,201.97 20.47,232.67 14.33,30.01 40.26,55.94 78.46,76.41 38.21,20.46 103.71,30.7 195.82,30.7l0 73.69 -921.11 0 0 -73.69c100.3,0 169.21,-11.6 206.74,-35.48 37.52,-23.88 63.45,-60.05 77.78,-107.81 6.81,-22.51 10.23,-88.01 10.23,-196.5l0 -788.05c0,-149.43 -21.83,-257.23 -65.5,-323.41 -58.68,-85.98 -139.87,-128.96 -244.94,-128.96 -71.65,0 -142.61,19.79 -212.89,58.68 -109.85,58.68 -195.13,125.54 -254.49,199.23l0 982.51c0,119.41 8.18,196.5 24.56,232.67 16.38,35.48 40.93,62.09 73.69,80.51 32.07,17.73 97.58,26.61 196.5,26.61l0 73.69 -904.72 0 0 -73.69c83.92,0 142.6,-8.87 176.03,-26.61 33.43,-18.42 58.68,-46.4 76.42,-85.98 17.06,-38.89 25.92,-114.62 25.92,-227.2l0 -700.04c0,-200.6 -6.13,-330.24 -17.73,-388.92 -9.55,-44.34 -23.88,-74.37 -44.35,-90.74 -19.78,-17.06 -47.08,-25.25 -81.19,-25.25 -37.53,0 -81.88,10.24 -133.73,30.02l-30.01 -73.69 552.65 -225.16 85.98 0 0 391.63zm2942.76 353.44c-1.37,270.87 64.81,483.06 197.86,637.26 133.06,153.52 289.98,230.62 470.11,230.62 119.41,0 223.8,-32.75 312.49,-98.26 88.7,-64.81 163.07,-178.76 223.12,-339.78l61.41 40.26c-27.98,184.22 -109.17,351.38 -243.58,500.81 -134.41,149.42 -302.94,224.48 -504.91,224.48 -219.7,0 -408.02,-85.3 -564.26,-256.55 -156.25,-171.25 -234.71,-401.19 -234.71,-689.81 0,-312.49 80.51,-556.75 240.85,-731.42 160.34,-175.36 361.62,-262.68 603.83,-262.68 204.69,0 373.22,67.54 504.91,202.64 131.69,135.09 197.87,315.91 197.87,542.43l-1264.98 0zm0 -114.63l847.41 0c-6.82,-117.35 -20.47,-199.91 -41.61,-247.68 -33.44,-74.37 -83.25,-133.05 -149.43,-175.35 -65.49,-42.98 -134.41,-64.13 -206.73,-64.13 -110.53,0 -209.47,42.98 -296.8,128.96 -87.33,85.97 -137.82,205.37 -152.83,358.2zm2693.03 -630.44l0 622.25 -65.49 0c-50.5,-195.14 -115.31,-327.51 -194.46,-397.78 -78.46,-70.28 -179.45,-105.76 -301.57,-105.76 -92.8,0 -167.85,24.56 -225.17,73.69 -56.63,49.13 -85.29,103.71 -85.29,163.75 0,74.38 21.15,138.51 62.78,191.72 40.93,54.58 124.86,112.58 251.08,173.99l292.03 141.24c270.19,132.37 405.28,306.35 405.28,521.96 0,166.48 -62.77,300.89 -189,402.55 -125.54,101.66 -266.78,152.84 -422.35,152.84 -111.89,0 -240.16,-19.79 -383.45,-58.68 -44.35,-12.97 -80.51,-19.1 -108.49,-19.1 -30.01,0 -54.58,16.38 -71.64,49.12l-65.5 0 0 -655.01 65.5 0c37.53,186.95 108.49,328.19 214.25,423.03 105.07,94.84 223.11,141.92 354.12,141.92 91.42,0 166.48,-26.61 224.47,-80.51 58,-53.9 87.33,-119.4 87.33,-195.13 0,-91.43 -32.74,-168.53 -97.57,-231.3 -64.81,-62.78 -193.77,-141.24 -387.55,-236.76 -193.09,-95.53 -319.32,-181.49 -379.35,-259.28 -59.36,-75.73 -89.38,-171.94 -89.38,-287.93 0,-150.79 51.86,-277.01 154.88,-378.67 103.03,-101.66 236.08,-152.15 399.84,-152.15 72.32,0 158.97,15.69 261.99,47.07 67.55,20.47 112.58,30.7 135.1,30.7 21.83,0 38.21,-4.78 50.49,-14.33 11.6,-9.55 25.93,-30.7 41.62,-63.45l65.49 0z"/>
   <g>
    <path class="fil6" d="M1086.34 12552.12c44.64,0 82.69,15.83 114.36,47.28 31.44,31.67 47.28,69.72 47.28,114.36 0,44.64 -15.84,82.69 -47.28,114.36 -31.67,31.44 -69.72,47.28 -114.36,47.28 -44.64,0 -82.69,-15.84 -114.36,-47.28 -31.45,-31.67 -47.28,-69.72 -47.28,-114.36 0,-44.64 15.61,-82.69 47.06,-114.36 31.23,-31.45 69.5,-47.28 114.58,-47.28zm756.53 381.12c-35.85,-17.59 -63.56,-42 -82.91,-73.68 -19.13,-31.44 -28.82,-66.19 -28.82,-104.46 0,-58.28 22,-108.43 65.98,-150.43 43.76,-42 100.06,-63.12 168.67,-63.12 56.08,0 104.69,13.64 145.81,40.9l124.69 0c18.47,0 29.25,0.44 32.11,1.54 3.08,1.1 5.28,2.86 6.37,5.51 2.64,3.96 3.96,10.77 3.96,20.67 0,11.21 -1.1,18.91 -3.3,23.31 -1.1,1.98 -3.52,3.74 -6.59,5.06 -3.3,1.32 -14.08,1.98 -32.55,1.98l-76.75 0c23.97,30.79 36.07,70.38 36.07,118.54 0,54.76 -20.89,101.82 -62.9,140.97 -42,38.93 -98.31,58.5 -169.12,58.5 -29.03,0 -58.72,-4.4 -89.28,-12.97 -18.69,16.49 -31.45,30.78 -38.27,43.1 -6.6,12.31 -9.9,22.65 -9.9,31.22 0,7.48 3.52,14.52 10.56,21.33 7.25,7.04 21.11,11.88 41.56,14.96 12.1,1.76 42.22,3.52 90.38,4.84 88.41,2.21 145.81,5.51 171.98,9.68 40.03,5.5 71.92,20.45 95.67,44.42 23.97,24.19 35.85,53.66 35.85,89.07 0,48.38 -22.65,94.13 -68.18,136.57 -67.07,62.68 -154.38,94.12 -262.14,94.12 -82.91,0 -152.85,-18.68 -209.81,-56.07 -32.32,-21.55 -48.38,-43.99 -48.38,-67.08 0,-10.33 2.42,-20.67 7.03,-31 7.26,-15.84 22.44,-38.05 45.09,-66.42 3.08,-3.96 24.85,-27.05 65.75,-69.71 -22.43,-13.42 -38.05,-25.3 -47.28,-35.85 -9.24,-10.56 -13.86,-22.65 -13.86,-36.07 0,-15.18 6.15,-32.77 18.25,-53.22 12.09,-20.23 40.25,-49.04 84.23,-86.21zm112.16 -360.01c-31.67,0 -58.28,12.53 -79.61,37.83 -21.33,25.29 -32.11,63.99 -32.11,116.12 0,67.73 14.52,120.08 43.76,157.24 22.21,28.37 50.37,42.44 84.68,42.44 32.54,0 59.38,-12.1 80.27,-36.51 20.89,-24.41 31.44,-62.68 31.44,-115.02 0,-67.95 -14.73,-121.18 -44.2,-159.66 -21.99,-28.38 -49.92,-42.44 -84.23,-42.44zm-118.1 576.63c-20.23,21.77 -35.41,42.22 -45.53,61.14 -10.33,18.91 -15.39,36.29 -15.39,52.13 0,20.45 12.53,38.49 37.39,54.09 42.66,26.62 104.68,39.82 185.61,39.82 77.19,0 134.15,-13.64 170.66,-40.91 36.73,-27.27 54.97,-56.29 54.97,-87.3 0,-22.43 -10.99,-38.27 -32.76,-47.72 -22.43,-9.46 -66.42,-14.96 -132.4,-16.72 -96.55,-2.64 -170.66,-7.48 -222.56,-14.52zm681.97 -608.31l0 133.28c49.04,-88.85 99.4,-133.28 151.09,-133.28 23.31,0 42.66,7.25 58.06,21.77 15.39,14.3 23.09,31.01 23.09,49.93 0,16.94 -5.51,31.22 -16.5,42.88 -11.22,11.66 -24.41,17.38 -39.59,17.38 -14.96,0 -31.67,-7.48 -50.15,-22.43 -18.69,-14.96 -32.54,-22.43 -41.34,-22.43 -7.69,0 -16.06,4.4 -25.07,12.97 -19.13,17.59 -39.15,46.85 -59.6,87.31l0 282.38c0,32.77 4.18,57.84 12.32,74.56 5.5,11.65 15.39,21.33 29.46,28.81 14.3,7.7 34.53,11.44 61.14,11.44l0 23.75 -302.17 0 0 -23.75c29.9,0 52.12,-4.62 66.63,-14.08 10.78,-7.03 18.25,-17.81 22.43,-32.99 2.2,-7.25 3.3,-28.15 3.3,-62.46l0 -228.27c0,-68.62 -1.32,-109.31 -4.18,-122.5 -2.86,-12.97 -7.91,-22.65 -15.4,-28.59 -7.47,-5.93 -16.93,-9.01 -27.93,-9.01 -13.42,0 -28.37,3.3 -45.08,9.67l-6.38 -23.75 178.81 -72.58 27.05 0zm599.06 522.54c-60.48,46.84 -98.53,74.11 -114.14,81.37 -23.09,10.77 -47.72,16.28 -73.9,16.28 -40.9,0 -74.55,-14.08 -100.94,-42.01 -26.39,-27.93 -39.59,-64.65 -39.59,-110.18 0,-28.82 6.38,-53.88 19.35,-74.78 17.59,-29.24 48.17,-56.74 91.71,-82.69 43.76,-25.73 116.12,-57.18 217.5,-94.13l0 -23.09c0,-58.72 -9.23,-98.96 -27.93,-120.96 -18.69,-21.77 -45.75,-32.77 -81.38,-32.77 -26.83,0 -48.38,7.25 -64.21,21.99 -16.28,14.52 -24.41,31.23 -24.41,50.15l1.32 37.39c0,19.79 -5.06,35.18 -15.18,45.96 -10.11,10.78 -23.53,16.06 -39.81,16.06 -16.06,0 -29.24,-5.5 -39.37,-16.72 -10.11,-11.22 -15.18,-26.61 -15.18,-45.96 0,-36.95 18.91,-71.04 56.74,-102.05 37.83,-31 91.05,-46.4 159.44,-46.4 52.56,0 95.45,8.8 129.1,26.39 25.29,13.2 43.98,34.09 56.08,62.47 7.69,18.25 11.65,56.07 11.65,113.03l0 200.14c0,56.07 1.11,90.6 3.31,103.14 2.2,12.75 5.72,21.11 10.55,25.51 5.06,4.18 10.78,6.37 17.16,6.37 7.03,0 12.98,-1.54 18.25,-4.4 9.01,-5.72 26.39,-21.33 52.34,-47.06l0 36.07c-48.39,64.87 -94.57,97.21 -138.55,97.21 -21.11,0 -38.05,-7.26 -50.59,-21.78 -12.54,-14.73 -18.91,-39.59 -19.35,-74.55zm0 -42l0 -224.55c-65.31,25.73 -107.32,43.98 -126.45,54.76 -34.09,18.91 -58.5,38.49 -73.24,59.16 -14.74,20.67 -21.99,43.1 -21.99,67.51 0,31.01 9.23,56.52 27.93,76.97 18.47,20.45 40.03,30.57 64.21,30.57 32.77,0 75.87,-21.55 129.54,-64.43zm68.62 -766.87l-189.36 221.68 -21.77 0 67.29 -221.68 143.84 0zm379.8 303.49l245.22 0c47.72,0 78.73,-0.88 92.8,-2.64l28.82 0 0 456.56c0,47.72 5.72,78.29 17.16,91.93 11.65,13.41 37.6,20.67 77.85,21.55l0 23.75 -296.9 0 0 -23.75c42.45,0 69.94,-9.24 82.04,-27.72 8.57,-12.97 12.97,-41.56 12.97,-85.77l0 -312.29c0,-40.03 -2.2,-63.99 -6.37,-72.13 -3.3,-6.6 -9.9,-11.66 -19.35,-15.18 -9.68,-3.74 -40.25,-5.51 -92.15,-5.51l-142.07 0 0 383.99c0,46.4 2.64,76.31 7.69,90.17 3.97,10.33 11.88,19.13 23.98,26.39 19.13,12.09 35.4,18.03 49.26,18.03l27.28 0 0 23.75 -323.29 0 0 -23.75 23.09 0c30.13,0 51.91,-8.36 65.1,-24.85 13.41,-16.5 20.01,-53 20.01,-109.75l0 -383.99 -114.8 0 0 -48.82 114.8 0c0,-78.51 10.77,-139.87 32.32,-183.85 21.77,-43.99 53.66,-78.73 96.11,-104.03 42.44,-25.29 90.39,-38.05 143.83,-38.05 36.95,0 70.38,6.16 100.29,18.25 29.9,12.32 52.12,27.94 66.41,46.85 14.3,19.13 21.55,36.95 21.55,53.65 0,14.74 -4.84,26.84 -14.52,36.73 -9.89,9.9 -21.33,14.74 -34.74,14.74 -14.74,0 -27.28,-3.74 -37.83,-11.21 -10.34,-7.48 -27.72,-28.6 -51.91,-63.35 -13.86,-20.23 -28.82,-34.74 -44.42,-43.76 -12.1,-6.37 -26.84,-9.67 -44.65,-9.67 -21.77,0 -43.32,8.79 -64.65,26.39 -21.55,17.59 -36.29,37.83 -44.42,60.7 -11,30.79 -16.5,85.11 -16.5,162.52l0 34.09zm1040.01 366.61c-15.84,78.07 -47.07,137.67 -93.47,179.24 -46.4,41.56 -97.65,62.46 -153.95,62.46 -67.07,0 -125.57,-28.16 -175.28,-84.45 -49.92,-56.08 -74.78,-132.18 -74.78,-228.06 0,-92.59 27.5,-168.03 82.7,-226.08 55.19,-57.84 121.4,-86.88 198.59,-86.88 58.06,0 105.56,15.4 142.95,46.18 37.39,30.57 56.08,62.47 56.08,95.67 0,16.28 -5.29,29.47 -15.84,39.59 -10.56,10.12 -25.07,15.18 -43.98,15.18 -25.3,0 -44.21,-8.13 -56.74,-24.63 -7.7,-9.02 -12.76,-26.39 -15.18,-51.91 -2.42,-25.51 -11,-45.08 -25.95,-58.5 -15.18,-12.97 -35.85,-19.35 -62.46,-19.35 -43.11,0 -77.63,15.84 -103.81,47.73 -34.74,42.22 -52.12,97.87 -52.12,167.36 0,70.6 17.38,132.84 51.9,186.94 34.75,53.87 81.37,80.93 140.31,80.93 42.23,0 80.05,-14.08 113.48,-42.44 23.75,-19.57 46.63,-55.64 69.06,-107.99l18.47 9.02zm416.75 138.77c-60.48,46.84 -98.53,74.11 -114.14,81.37 -23.09,10.77 -47.72,16.28 -73.9,16.28 -40.9,0 -74.55,-14.08 -100.94,-42.01 -26.39,-27.93 -39.59,-64.65 -39.59,-110.18 0,-28.82 6.38,-53.88 19.35,-74.78 17.59,-29.24 48.17,-56.74 91.71,-82.69 43.76,-25.73 116.12,-57.18 217.5,-94.13l0 -23.09c0,-58.72 -9.23,-98.96 -27.93,-120.96 -18.69,-21.77 -45.75,-32.77 -81.38,-32.77 -26.83,0 -48.38,7.25 -64.21,21.99 -16.28,14.52 -24.41,31.23 -24.41,50.15l1.32 37.39c0,19.79 -5.06,35.18 -15.18,45.96 -10.11,10.78 -23.53,16.06 -39.81,16.06 -16.06,0 -29.24,-5.5 -39.37,-16.72 -10.11,-11.22 -15.18,-26.61 -15.18,-45.96 0,-36.95 18.91,-71.04 56.74,-102.05 37.83,-31 91.05,-46.4 159.44,-46.4 52.56,0 95.45,8.8 129.1,26.39 25.29,13.2 43.98,34.09 56.08,62.47 7.69,18.25 11.65,56.07 11.65,113.03l0 200.14c0,56.07 1.11,90.6 3.31,103.14 2.2,12.75 5.72,21.11 10.55,25.51 5.06,4.18 10.78,6.37 17.16,6.37 7.03,0 12.98,-1.54 18.25,-4.4 9.01,-5.72 26.39,-21.33 52.34,-47.06l0 36.07c-48.39,64.87 -94.57,97.21 -138.55,97.21 -21.11,0 -38.05,-7.26 -50.59,-21.78 -12.54,-14.73 -18.91,-39.59 -19.35,-74.55zm0 -42l0 -224.55c-65.31,25.73 -107.32,43.98 -126.45,54.76 -34.09,18.91 -58.5,38.49 -73.24,59.16 -14.74,20.67 -21.99,43.1 -21.99,67.51 0,31.01 9.23,56.52 27.93,76.97 18.47,20.45 40.03,30.57 64.21,30.57 32.77,0 75.87,-21.55 129.54,-64.43zm680.66 -240.38c-0.44,87.31 20.89,155.71 63.78,205.41 42.89,49.48 93.47,74.34 151.53,74.34 38.49,0 72.14,-10.56 100.72,-31.67 28.6,-20.89 52.56,-57.62 71.92,-109.53l19.79 12.98c-9.02,59.38 -35.19,113.26 -78.51,161.42 -43.32,48.17 -97.65,72.36 -162.74,72.36 -70.82,0 -131.52,-27.5 -181.88,-82.69 -50.36,-55.2 -75.65,-129.32 -75.65,-222.35 0,-100.72 25.96,-179.46 77.63,-235.76 51.69,-56.51 116.56,-84.67 194.63,-84.67 65.98,0 120.3,21.77 162.75,65.31 42.44,43.55 63.78,101.83 63.78,174.84l-407.74 0zm0 -36.95l273.14 0c-2.2,-37.82 -6.59,-64.43 -13.42,-79.83 -10.77,-23.97 -26.83,-42.88 -48.16,-56.51 -21.11,-13.86 -43.32,-20.68 -66.64,-20.68 -35.62,0 -67.51,13.86 -95.66,41.57 -28.16,27.71 -44.43,66.19 -49.27,115.45zm915.54 36.95c-0.44,87.31 20.89,155.71 63.78,205.41 42.89,49.48 93.47,74.34 151.53,74.34 38.49,0 72.14,-10.56 100.72,-31.67 28.6,-20.89 52.56,-57.62 71.92,-109.53l19.79 12.98c-9.02,59.38 -35.19,113.26 -78.51,161.42 -43.32,48.17 -97.65,72.36 -162.74,72.36 -70.82,0 -131.52,-27.5 -181.88,-82.69 -50.36,-55.2 -75.65,-129.32 -75.65,-222.35 0,-100.72 25.96,-179.46 77.63,-235.76 51.69,-56.51 116.56,-84.67 194.63,-84.67 65.98,0 120.3,21.77 162.75,65.31 42.44,43.55 63.78,101.83 63.78,174.84l-407.74 0zm0 -36.95l273.14 0c-2.2,-37.82 -6.59,-64.43 -13.42,-79.83 -10.77,-23.97 -26.83,-42.88 -48.16,-56.51 -21.11,-13.86 -43.32,-20.68 -66.64,-20.68 -35.62,0 -67.51,13.86 -95.66,41.57 -28.16,27.71 -44.43,66.19 -49.27,115.45zm903.66 336.93c-28.81,30.56 -56.96,52.33 -84.45,65.53 -27.49,13.2 -57.18,19.79 -88.85,19.79 -64.43,0 -120.74,-26.83 -168.89,-80.71 -48.17,-53.88 -72.14,-123.15 -72.14,-207.61 0,-84.45 26.62,-161.86 79.83,-232.02 53.44,-70.15 121.84,-105.12 205.63,-105.12 51.9,0 95.01,16.72 128.87,49.93l0 -109.31c0,-67.07 -1.54,-108.2 -4.84,-123.59 -3.3,-15.4 -8.35,-25.95 -15.18,-31.45 -7.03,-5.5 -15.62,-8.35 -25.95,-8.35 -11.22,0 -25.95,3.52 -44.64,10.33l-8.36 -23.75 176.82 -72.58 29.03 0 0 682.2c0,68.84 1.54,110.84 4.84,126.01 3.3,14.96 8.35,25.74 15.62,31.67 7.03,5.93 15.39,9.02 24.85,9.02 11.66,0 27.05,-3.75 46.62,-11l7.04 23.75 -176.16 72.58 -29.69 0 0 -85.33zm0 -45.09l0 -302.39c-2.64,-29.47 -10.33,-56.3 -23.31,-80.27 -12.76,-24.19 -29.9,-42.22 -51.25,-54.54 -21.33,-12.1 -42,-18.25 -62.24,-18.25 -37.83,0 -71.69,16.94 -101.38,50.81 -39.15,44.64 -58.72,109.74 -58.72,195.51 0,86.65 18.91,153.06 56.74,199.25 37.83,45.96 80.05,69.05 126.45,69.05 39.37,0 77.19,-19.79 113.7,-59.16zm394.32 -803.82c17.81,0 33.2,6.38 45.96,18.91 12.54,12.76 18.91,28.16 18.91,45.97 0,18.03 -6.37,33.64 -18.91,46.4 -12.76,12.98 -28.15,19.35 -45.96,19.35 -18.03,0 -33.65,-6.37 -46.41,-19.35 -12.97,-12.76 -19.35,-28.37 -19.35,-46.4 0,-17.81 6.38,-33.21 18.91,-45.97 12.76,-12.53 28.38,-18.91 46.85,-18.91zm52.99 308.77l0 475.03c0,36.73 2.65,61.14 8.14,73.24 5.28,12.32 13.2,21.33 23.75,27.27 10.56,5.94 29.91,9.02 57.84,9.02l0 23.75 -286.34 0 0 -23.75c28.6,0 47.95,-2.86 57.62,-8.36 9.9,-5.5 17.59,-14.73 23.54,-27.49 5.72,-12.76 8.57,-37.39 8.57,-73.68l0 -228.27c0,-63.57 -1.98,-104.69 -5.72,-123.6 -3.08,-13.63 -7.7,-23.09 -14.3,-28.37 -6.37,-5.5 -15.18,-8.13 -26.17,-8.13 -12.1,0 -26.62,3.3 -43.77,9.67l-9.01 -23.75 177.48 -72.58 28.37 0zm334.95 -176.82l0 193.97 137.89 0 0 43.54 -137.89 1.32 0 382.89c0,38.27 5.5,64.21 16.5,77.41 10.77,13.41 24.85,20.01 42,20.01 14.3,0 27.93,-4.41 41.34,-13.42 13.2,-8.79 23.53,-21.99 30.78,-39.37l25.08 0c-14.96,42.44 -36.29,74.34 -63.78,95.89 -27.72,21.33 -56.08,32.1 -85.34,32.1 -19.79,0 -39.15,-5.5 -58.06,-16.49 -18.91,-11 -32.76,-26.84 -41.78,-47.29 -9.01,-20.45 -13.64,-51.9 -13.64,-94.57l0 -398.5 -93.68 0 0 -20.45c23.75,-9.45 47.94,-25.29 72.79,-47.5 24.86,-22.43 46.85,-49.05 66.42,-80.05 9.89,-16.28 23.75,-46.19 41.56,-89.51l19.79 0zm484.71 176.82c89.5,0 161.2,33.87 215.3,101.82 45.96,57.84 69.05,124.48 69.05,199.69 0,52.78 -12.75,106.23 -38.05,160.33 -25.29,54.09 -60.26,95 -104.68,122.49 -44.64,27.49 -94.13,41.12 -148.67,41.12 -89.06,0 -159.88,-35.41 -212.22,-106.23 -44.21,-59.82 -66.42,-126.67 -66.42,-201.01 0,-54.09 13.42,-107.98 40.25,-161.42 26.84,-53.44 62.25,-93.03 106.23,-118.54 43.76,-25.51 90.16,-38.27 139.21,-38.27zm-20.01 42.22c-22.65,0 -45.52,6.82 -68.62,20.23 -22.87,13.64 -41.56,37.17 -55.63,71.04 -14.3,33.87 -21.34,77.41 -21.34,130.64 0,85.77 17.16,159.66 51.25,221.9 34.09,62.24 79.17,93.25 135.03,93.25 41.56,0 75.87,-17.16 102.92,-51.47 27.05,-34.31 40.68,-93.25 40.68,-176.82 0,-104.68 -22.65,-186.94 -67.73,-246.98 -30.35,-41.12 -69.28,-61.8 -116.56,-61.8zm563 -42.22l0 133.28c49.04,-88.85 99.4,-133.28 151.09,-133.28 23.31,0 42.66,7.25 58.06,21.77 15.39,14.3 23.09,31.01 23.09,49.93 0,16.94 -5.51,31.22 -16.5,42.88 -11.22,11.66 -24.41,17.38 -39.59,17.38 -14.96,0 -31.67,-7.48 -50.15,-22.43 -18.69,-14.96 -32.54,-22.43 -41.34,-22.43 -7.69,0 -16.06,4.4 -25.07,12.97 -19.13,17.59 -39.15,46.85 -59.6,87.31l0 282.38c0,32.77 4.18,57.84 12.32,74.56 5.5,11.65 15.39,21.33 29.46,28.81 14.3,7.7 34.53,11.44 61.14,11.44l0 23.75 -302.17 0 0 -23.75c29.9,0 52.12,-4.62 66.63,-14.08 10.78,-7.03 18.25,-17.81 22.43,-32.99 2.2,-7.25 3.3,-28.15 3.3,-62.46l0 -228.27c0,-68.62 -1.32,-109.31 -4.18,-122.5 -2.86,-12.97 -7.91,-22.65 -15.4,-28.59 -7.47,-5.93 -16.93,-9.01 -27.93,-9.01 -13.42,0 -28.37,3.3 -45.08,9.67l-6.38 -23.75 178.81 -72.58 27.05 0zm599.06 522.54c-60.48,46.84 -98.53,74.11 -114.14,81.37 -23.09,10.77 -47.72,16.28 -73.9,16.28 -40.9,0 -74.55,-14.08 -100.94,-42.01 -26.39,-27.93 -39.59,-64.65 -39.59,-110.18 0,-28.82 6.38,-53.88 19.35,-74.78 17.59,-29.24 48.17,-56.74 91.71,-82.69 43.76,-25.73 116.12,-57.18 217.5,-94.13l0 -23.09c0,-58.72 -9.23,-98.96 -27.93,-120.96 -18.69,-21.77 -45.75,-32.77 -81.38,-32.77 -26.83,0 -48.38,7.25 -64.21,21.99 -16.28,14.52 -24.41,31.23 -24.41,50.15l1.32 37.39c0,19.79 -5.06,35.18 -15.18,45.96 -10.11,10.78 -23.53,16.06 -39.81,16.06 -16.06,0 -29.24,-5.5 -39.37,-16.72 -10.11,-11.22 -15.18,-26.61 -15.18,-45.96 0,-36.95 18.91,-71.04 56.74,-102.05 37.83,-31 91.05,-46.4 159.44,-46.4 52.56,0 95.45,8.8 129.1,26.39 25.29,13.2 43.98,34.09 56.08,62.47 7.69,18.25 11.65,56.07 11.65,113.03l0 200.14c0,56.07 1.11,90.6 3.31,103.14 2.2,12.75 5.72,21.11 10.55,25.51 5.06,4.18 10.78,6.37 17.16,6.37 7.03,0 12.98,-1.54 18.25,-4.4 9.01,-5.72 26.39,-21.33 52.34,-47.06l0 36.07c-48.39,64.87 -94.57,97.21 -138.55,97.21 -21.11,0 -38.05,-7.26 -50.59,-21.78 -12.54,-14.73 -18.91,-39.59 -19.35,-74.55zm0 -42l0 -224.55c-65.31,25.73 -107.32,43.98 -126.45,54.76 -34.09,18.91 -58.5,38.49 -73.24,59.16 -14.74,20.67 -21.99,43.1 -21.99,67.51 0,31.01 9.23,56.52 27.93,76.97 18.47,20.45 40.03,30.57 64.21,30.57 32.77,0 75.87,-21.55 129.54,-64.43zm812.62 -417.2l0 389.26c0,54.76 5.93,89.29 18.03,103.8 16.06,18.69 37.39,28.16 64.21,28.16l53.66 0 0 23.75 -353.64 0 0 -23.75 26.39 0c17.16,0 32.99,-4.18 47.06,-12.76 14.3,-8.57 23.98,-20.23 29.25,-34.75 5.5,-14.51 8.13,-42.66 8.13,-84.45l0 -389.26 -114.79 0 0 -46.18 114.79 0 0 -38.49c0,-58.5 9.46,-108.2 28.38,-148.89 18.91,-40.47 47.94,-73.45 86.87,-98.31 39.15,-25.07 82.91,-37.6 131.52,-37.6 45.3,0 86.87,14.51 124.91,43.54 24.86,19.13 37.39,40.47 37.39,64.43 0,12.76 -5.5,24.85 -16.72,36.07 -11.21,11.21 -23.31,16.94 -36.29,16.94 -9.89,0 -20.23,-3.52 -31.22,-10.56 -11,-7.03 -24.41,-21.99 -40.47,-45.3 -15.84,-23.09 -30.57,-38.71 -43.76,-46.84 -13.42,-8.14 -28.16,-12.1 -44.65,-12.1 -19.79,0 -36.51,5.28 -50.36,15.62 -13.64,10.55 -23.53,26.83 -29.69,48.82 -5.93,21.99 -9.01,78.73 -9.01,170.44l0 42.22 151.75 0 0 46.18 -151.75 0zm727.05 -46.18l0 358.91c0,67.3 1.54,108.43 4.85,123.59 3.3,14.96 8.35,25.52 15.39,31.45 7.04,5.93 15.4,9.02 24.86,9.02 13.19,0 28.15,-3.75 44.86,-11l9.01 23.75 -176.82 72.58 -29.03 0 0 -123.81c-50.59,54.53 -89.29,88.62 -115.9,102.7 -26.61,14.08 -54.76,21.11 -84.45,21.11 -32.99,0 -61.58,-9.46 -86,-28.6 -24.19,-19.13 -41.12,-43.76 -50.58,-73.89 -9.46,-30.13 -14.08,-72.58 -14.08,-127.56l0 -263.46c0,-27.94 -3.08,-47.29 -9.01,-58.06 -6.16,-10.78 -14.96,-19.13 -26.84,-24.85 -11.87,-5.94 -33.42,-8.58 -64.43,-8.14l0 -23.75 207.17 0 0 396.08c0,55.2 9.45,91.27 28.59,108.43 19.13,17.37 42.22,25.95 69.28,25.95 18.46,0 39.37,-5.72 62.9,-17.38 23.31,-11.66 51.24,-33.87 83.35,-66.63l0 -334.28c0,-34.09 -6.15,-57.18 -18.47,-69.06 -12.32,-12.09 -37.83,-18.47 -76.53,-19.35l0 -23.75 201.89 0zm345.71 -325.93l0 783.81c0,36.73 2.65,61.14 7.92,73.02 5.5,11.88 13.64,21.11 24.85,27.27 11,6.16 31.89,9.24 62.24,9.24l0 23.75 -288.97 0 0 -23.75c27.05,0 45.52,-2.86 55.41,-8.36 9.9,-5.5 17.59,-14.73 23.32,-27.49 5.5,-12.76 8.35,-37.39 8.35,-73.68l0 -537.05c0,-65.97 -1.54,-106.44 -4.4,-121.4 -3.08,-15.18 -7.92,-25.51 -14.52,-31.01 -6.59,-5.5 -15.18,-8.35 -25.51,-8.35 -11,0 -25.07,3.52 -42.22,10.33l-11 -23.75 175.5 -72.58 29.03 0zm366.61 0l0 783.81c0,36.73 2.65,61.14 7.92,73.02 5.5,11.88 13.64,21.11 24.85,27.27 11,6.16 31.89,9.24 62.24,9.24l0 23.75 -288.97 0 0 -23.75c27.05,0 45.52,-2.86 55.41,-8.36 9.9,-5.5 17.59,-14.73 23.32,-27.49 5.5,-12.76 8.35,-37.39 8.35,-73.68l0 -537.05c0,-65.97 -1.54,-106.44 -4.4,-121.4 -3.08,-15.18 -7.92,-25.51 -14.52,-31.01 -6.59,-5.5 -15.18,-8.35 -25.51,-8.35 -11,0 -25.07,3.52 -42.22,10.33l-11 -23.75 175.5 -72.58 29.03 0zm664.84 131.96l0 193.97 137.89 0 0 43.54 -137.89 1.32 0 382.89c0,38.27 5.5,64.21 16.5,77.41 10.77,13.41 24.85,20.01 42,20.01 14.3,0 27.93,-4.41 41.34,-13.42 13.2,-8.79 23.53,-21.99 30.78,-39.37l25.08 0c-14.96,42.44 -36.29,74.34 -63.78,95.89 -27.72,21.33 -56.08,32.1 -85.34,32.1 -19.79,0 -39.15,-5.5 -58.06,-16.49 -18.91,-11 -32.76,-26.84 -41.78,-47.29 -9.01,-20.45 -13.64,-51.9 -13.64,-94.57l0 -398.5 -93.68 0 0 -20.45c23.75,-9.45 47.94,-25.29 72.79,-47.5 24.86,-22.43 46.85,-49.05 66.42,-80.05 9.89,-16.28 23.75,-46.19 41.56,-89.51l19.79 0zm345.28 -131.96c17.81,0 33.2,6.38 45.96,18.91 12.54,12.76 18.91,28.16 18.91,45.97 0,18.03 -6.37,33.64 -18.91,46.4 -12.76,12.98 -28.15,19.35 -45.96,19.35 -18.03,0 -33.65,-6.37 -46.41,-19.35 -12.97,-12.76 -19.35,-28.37 -19.35,-46.4 0,-17.81 6.38,-33.21 18.91,-45.97 12.76,-12.53 28.38,-18.91 46.85,-18.91zm52.99 308.77l0 475.03c0,36.73 2.65,61.14 8.14,73.24 5.28,12.32 13.2,21.33 23.75,27.27 10.56,5.94 29.91,9.02 57.84,9.02l0 23.75 -286.34 0 0 -23.75c28.6,0 47.95,-2.86 57.62,-8.36 9.9,-5.5 17.59,-14.73 23.54,-27.49 5.72,-12.76 8.57,-37.39 8.57,-73.68l0 -228.27c0,-63.57 -1.98,-104.69 -5.72,-123.6 -3.08,-13.63 -7.7,-23.09 -14.3,-28.37 -6.37,-5.5 -15.18,-8.13 -26.17,-8.13 -12.1,0 -26.62,3.3 -43.77,9.67l-9.01 -23.75 177.48 -72.58 28.37 0zm338.91 126.24c42.66,-43.11 67.96,-67.96 75.65,-74.56 19.13,-16.28 39.81,-29.03 62.02,-38.05 22.21,-9.02 44.2,-13.64 65.97,-13.64 36.95,0 68.4,10.78 95.01,32.33 26.4,21.55 44.2,52.77 53,93.91 44.42,-51.91 81.81,-85.78 112.38,-102.05 30.56,-16.05 62.02,-24.19 94.34,-24.19 31.23,0 59.16,8.14 83.58,24.19 24.19,16.06 43.54,42.44 57.62,79.17 9.45,24.86 14.29,64 14.29,117.44l0 254.23c0,36.73 2.64,62.02 8.14,75.65 4.18,9.24 12.09,17.38 23.31,23.97 11.43,6.6 29.9,9.9 55.64,9.9l0 23.75 -288.98 0 0 -23.75 12.32 0c25.07,0 44.86,-4.84 58.94,-14.74 9.89,-6.81 16.94,-17.81 21.11,-32.77 1.76,-7.25 2.64,-27.93 2.64,-62.02l0 -254.01c0,-48.16 -5.72,-82.03 -17.38,-101.82 -16.94,-27.49 -43.76,-41.34 -80.93,-41.34 -22.65,0 -45.74,5.72 -68.84,17.16 -22.87,11.22 -50.8,32.55 -83.57,63.34l-1.32 7.26 2.64 27.71 0 281.72c0,40.03 2.2,65.1 6.6,75 4.62,9.68 12.97,18.03 25.29,24.63 12.31,6.6 33.43,9.9 63.12,9.9l0 23.75 -296.89 0 0 -23.75c32.33,0 54.54,-3.74 66.63,-11.44 12.1,-7.69 20.45,-19.35 25.08,-34.75 2.2,-7.25 3.3,-28.37 3.3,-63.34l0 -254.01c0,-48.16 -7.04,-82.91 -21.11,-104.24 -18.91,-27.71 -45.09,-41.56 -78.95,-41.56 -23.09,0 -45.97,6.37 -68.62,18.91 -35.41,18.91 -62.9,40.47 -82.03,64.21l0 316.69c0,38.49 2.64,63.34 7.91,75 5.29,11.44 13.2,20.01 23.76,25.95 10.33,5.73 31.44,8.58 63.34,8.58l0 23.75 -291.62 0 0 -23.75c27.05,0 45.96,-2.86 56.74,-8.58 10.77,-5.93 18.91,-14.95 24.63,-27.71 5.5,-12.54 8.36,-36.95 8.36,-73.24l0 -225.64c0,-64.66 -1.98,-106.45 -5.73,-125.36 -3.08,-14.29 -7.69,-23.97 -14.29,-29.24 -6.38,-5.5 -15.18,-8.13 -26.18,-8.13 -12.09,0 -26.39,3.3 -43.1,9.67l-9.67 -23.75 178.14 -72.58 27.71 0 0 126.24z"/>
    <path class="fil6" d="M14534.6 12781.71c-0.44,87.31 20.89,155.71 63.78,205.41 42.89,49.48 93.47,74.34 151.53,74.34 38.49,0 72.14,-10.56 100.72,-31.67 28.6,-20.89 52.56,-57.62 71.92,-109.53l19.79 12.98c-9.02,59.38 -35.19,113.26 -78.51,161.42 -43.32,48.17 -97.65,72.36 -162.74,72.36 -70.82,0 -131.52,-27.5 -181.88,-82.69 -50.36,-55.2 -75.65,-129.32 -75.65,-222.35 0,-100.72 25.96,-179.46 77.63,-235.76 51.69,-56.51 116.56,-84.67 194.63,-84.67 65.98,0 120.3,21.77 162.75,65.31 42.44,43.55 63.78,101.83 63.78,174.84l-407.74 0zm0 -36.95l273.14 0c-2.2,-37.82 -6.59,-64.43 -13.42,-79.83 -10.77,-23.97 -26.83,-42.88 -48.16,-56.51 -21.11,-13.86 -43.32,-20.68 -66.64,-20.68 -35.62,0 -67.51,13.86 -95.66,41.57 -28.16,27.71 -44.43,66.19 -49.27,115.45zm1009.89 -192.64c44.64,0 82.69,15.83 114.36,47.28 31.44,31.67 47.28,69.72 47.28,114.36 0,44.64 -15.84,82.69 -47.28,114.36 -31.67,31.44 -69.72,47.28 -114.36,47.28 -44.64,0 -82.69,-15.84 -114.36,-47.28 -31.45,-31.67 -47.28,-69.72 -47.28,-114.36 0,-44.64 15.61,-82.69 47.06,-114.36 31.23,-31.45 69.5,-47.28 114.58,-47.28z"/>
   </g>
  </g>
 </g>
</svg>
